SplineFontDB: 3.2
FontName: Etude6
FullName: Etude6
FamilyName: Etude6
Weight: Regular
Copyright: Copyright (c) 2023, iorsh
UComments: "2023-10-16: Created with FontForge (http://fontforge.org)"
Version: 001.000
ItalicAngle: 0
UnderlinePosition: -100
UnderlineWidth: 50
Ascent: 800
Descent: 200
InvalidEm: 0
LayerCount: 2
Layer: 0 0 "Back" 1
Layer: 1 0 "Fore" 0
XUID: [1021 899 -1374755209 3744499]
StyleMap: 0x0000
FSType: 0
OS2Version: 0
OS2_WeightWidthSlopeOnly: 0
OS2_UseTypoMetrics: 0
CreationTime: 0
ModificationTime: 1747339878
PfmFamily: 17
TTFWeight: 400
TTFWidth: 5
LineGap: 0
VLineGap: 90
OS2TypoAscent: 1000
OS2TypoAOffset: 0
OS2TypoDescent: -200
OS2TypoDOffset: 0
OS2TypoLinegap: 0
OS2WinAscent: 1000
OS2WinAOffset: 0
OS2WinDescent: 200
OS2WinDOffset: 0
HheadAscent: 1000
HheadAOffset: 0
HheadDescent: -200
HheadDOffset: 0
OS2Vendor: 'CLM '
MarkAttachClasses: 1
DEI: 91125
ShortTable: maxp 16
  0
  0
  0
  0
  0
  0
  0
  2
  1
  2
  22
  0
  256
  0
  0
  0
EndShort
TtTable: prep
PUSHW_1
 511
SCANCTRL
PUSHB_1
 1
SCANTYPE
SVTCA[y-axis]
MPPEM
PUSHB_1
 8
LT
IF
PUSHB_2
 1
 1
INSTCTRL
EIF
PUSHB_2
 70
 6
CALL
IF
POP
PUSHB_1
 16
EIF
MPPEM
PUSHB_1
 20
GT
IF
POP
PUSHB_1
 128
EIF
SCVTCI
PUSHB_1
 6
CALL
NOT
IF
EIF
PUSHB_1
 20
CALL
EndTTInstrs
TtTable: fpgm
PUSHB_1
 0
FDEF
PUSHB_1
 0
SZP0
MPPEM
PUSHB_1
 42
LT
IF
PUSHB_1
 74
SROUND
EIF
PUSHB_1
 0
SWAP
MIAP[rnd]
RTG
PUSHB_1
 6
CALL
IF
RTDG
EIF
MPPEM
PUSHB_1
 42
LT
IF
RDTG
EIF
DUP
MDRP[rp0,rnd,grey]
PUSHB_1
 1
SZP0
MDAP[no-rnd]
RTG
ENDF
PUSHB_1
 1
FDEF
DUP
MDRP[rp0,min,white]
PUSHB_1
 12
CALL
ENDF
PUSHB_1
 2
FDEF
MPPEM
GT
IF
RCVT
SWAP
EIF
POP
ENDF
PUSHB_1
 3
FDEF
ROUND[Black]
RTG
DUP
PUSHB_1
 64
LT
IF
POP
PUSHB_1
 64
EIF
ENDF
PUSHB_1
 4
FDEF
PUSHB_1
 6
CALL
IF
POP
SWAP
POP
ROFF
IF
MDRP[rp0,min,rnd,black]
ELSE
MDRP[min,rnd,black]
EIF
ELSE
MPPEM
GT
IF
IF
MIRP[rp0,min,rnd,black]
ELSE
MIRP[min,rnd,black]
EIF
ELSE
SWAP
POP
PUSHB_1
 5
CALL
IF
PUSHB_1
 70
SROUND
EIF
IF
MDRP[rp0,min,rnd,black]
ELSE
MDRP[min,rnd,black]
EIF
EIF
EIF
RTG

StartChar: afii57667
Encoding: 6 1491 0
Width: 852
Flags: HW
VStem: 576.433 39.4844<455.791 576.185>
LayerCount: 2
Fore
SplineSet
55.083984375 801 m 4
 37.6845703125 830 69.2568359375 844.057617188 85.083984375 831 c 4
 125.083984375 798 160.086914062 781.11328125 207.083984375 780 c 4
 418.083984375 775 529.083984375 789 735.083984375 806 c 0
 813.974609375 812.510742188 817.083984375 776 777.083984375 736 c 0
 745.8671875 704.783203125 705.083984375 682 675.083984375 651 c 0
 641.841796875 616.649414062 625.083984375 588 621.083984375 541 c 0
 618.696289062 512.94140625 620.083984375 496 624.083984375 468 c 24
 641.083984375 333 665.615234375 258.728515625 675.083984375 123 c 0
 678.083984375 80 673.083984375 59 637.083984375 36 c 0
 601.322265625 13.1513671875 564.428710938 -0.1435546875 512.083984375 -14 c 0
 478.083984375 -23 461.083984375 -11 469.083984375 23 c 0
 511.444335938 203.029296875 535.083984375 321 564.083984375 516 c 24
 571.083984375 564 580.549804688 599.760742188 561.083984375 644 c 0
 550.083984375 669 521.743164062 671.724609375 495.083984375 667 c 0
 416.083984375 653 344.083984375 638 257.083984375 618 c 0
 213.184570312 607.908203125 172.013671875 614.204101562 147.083984375 652 c 4
 116.083984375 699 93.06640625 737.696289062 55.083984375 801 c 4
EndSplineSet
EndChar

StartChar: afii57678
Encoding: 17 1502 1
Width: 887
Flags: HW
LayerCount: 2
Back
SplineSet
57.3544921875 772 m 0
 71.0498046875 790.154296875 97.76953125 780.419921875 115.354492188 766 c 0
 165.354492188 725 225.354492188 686 283.354492188 655 c 0
 309.515625 641.017578125 340.515625 635.087890625 359.354492188 658 c 0
 433.354492188 748 504.25 817.309570312 624.354492188 815 c 0
 728.354492188 813 786.786132812 653.204101562 808.354492188 519 c 0
 826.354492188 407 835.354492188 296 837.354492188 184 c 0
 838.05078125 145.00390625 833.150390625 67.89453125 813.354492188 40 c 0
 791.354492188 9 758.354492188 0 700.354492188 -6 c 0
 600.916015625 -16.287109375 540.193359375 17.0908203125 440.354492188 12 c 0
 363.120117188 8.0615234375 321.766601562 -12.091796875 245.354492188 -24 c 24
 231.482421875 -26.162109375 213.071289062 -37.5390625 209.354492188 -24 c 24
 203.620117188 -3.111328125 217.912109375 10.0146484375 231.354492188 27 c 24
 268.84375 74.3701171875 290.14453125 102.596679688 338.354492188 139 c 24
 368.234375 161.5625 389.91796875 174.342773438 427.354492188 175 c 24
 504.732421875 176.357421875 547.466796875 159.177734375 623.354492188 144 c 24
 676.318359375 133.407226562 703.428710938 112.071289062 757.354492188 109 c 24
 771.131835938 108.21484375 784.514648438 121.567382812 781.354492188 135 c 24
 753.361328125 253.970703125 722.354492188 351 681.354492188 432 c 0
 645.931640625 501.981445312 593.490234375 567.927734375 545.354492188 614.1328125 c 0
 442.354492188 713 394.354492188 676 319.354492188 484 c 0
 289.723632812 408.14453125 250.354492188 303 219.354492188 220 c 0
 188.1875 136.551757812 151.642578125 10.701171875 127.354492188 6 c 0
 96.3544921875 0 118.258789062 56.1962890625 126.354492188 88 c 0
 154.354492188 198 189.354492188 303 182.354492188 400 c 0
 173.147460938 527.586914062 120.354492188 630 67.3544921875 707 c 0
 53.0341796875 727.8046875 42.1435546875 751.836914062 57.3544921875 772 c 0
EndSplineSet
Fore
SplineSet
68.841796875 812.595703125 m 0
 83.615234375 831.942382812 110.050527945 819.587638014 127.025390625 802.56640625 c 0
 175.288085938 754.171875 233.744634584 703.980310264 290.604492188 669.647460938 c 0
 316.251953125 654.161132812 347.20543026 646.541586353 367.41796875 668.655273438 c 0
 446.813476562 755.518554687 521.983367634 821.678281404 643 813 c 0
 747.790039062 805.485351562 798.279812204 641.223793046 812.939453125 504.724609375 c 0
 825.173828125 390.807617188 828.352572734 246.01269415 824.44921875 132.94140625 c 0
 820.545898438 19.87109375 787.329152902 -15.7051127617 698.08984375 -20.2353515625 c 0
 597.25 -25.3544921875 515.937498526 12.6649685174 414.96875 12.8076171875 c 0
 336.860351562 12.91796875 291.604670839 -7.11697565506 213.905273438 -15.087890625 c 0
 174.904296875 -19.0888671875 166.447736063 -4.50920321828 194.534179688 27.39453125 c 0
 234.850585938 73.1904296875 268.252591214 112.126945517 318.802734375 146.293945312 c 0
 350.133789062 167.470703125 372.186992834 179.233337457 410.473632812 177.899414062 c 0
 533.5234375 173.612304687 665.020953325 108.829307553 728.440429688 95.7421875 c 0
 756.456054688 89.9609375 768.654790472 101.478426119 763.166015625 131.096679688 c 0
 725.927734375 332.040039063 676.994990537 482.095463542 552.702148438 614.578125 c 0
 454.040039062 719.741210938 403.670449058 684.96060588 317.875976562 495.270507812 c 0
 283.98046875 420.328125 238.713332583 316.35863067 203.059570312 234.282226562 c 0
 167.212890625 151.76171875 123.701085891 26.7594044977 98.955078125 23.3017578125 c 0
 67.37109375 18.888671875 92.4349257305 74.411022238 102.28125 106.060546875 c 0
 136.336914062 215.52734375 177.189183612 319.582045167 175.255859375 417.788085938 c 0
 172.712890625 546.961914062 124.880634567 651.387683107 75.4921875 739.899414062 c 0
 62.1484375 763.813476562 52.4346304202 791.109559905 68.841796875 812.595703125 c 0
EndSplineSet
EndChar

StartChar: afii57669
Encoding: 8 1493 2
Width: 288
Flags: HW
VStem: 181.994 37<-17.8 137.19>
LayerCount: 2
Back
SplineSet
181.994140625 801 m 0
 215.494140625 823 240.004882812 817.4765625 238.494140625 774 c 0
 229.494140625 515 219.876953125 277 230.994140625 26 c 0
 232.000976562 3.25 219.758789062 -18.740234375 200.994140625 -18 c 0
 181.994140625 -17.25 172.244140625 3.25 173.994140625 28 c 0
 183.91015625 168.251953125 129.084960938 374 60.994140625 575 c 0
 46.373046875 618.159179688 43.8193359375 648.516601562 68.994140625 686.5 c 0
 97.494140625 729.5 137.197265625 771.581054688 181.994140625 801 c 0
EndSplineSet
Fore
SplineSet
181.994140625 801 m 0
 215.494140625 823 240.379882812 817.461914062 238.494140625 774 c 0
 227.994140625 532 221.994140625 318 231.494140625 26 c 0
 232.234375 3.2294921875 218.01171875 -18.740234375 195.494140625 -18 c 0
 172.694335938 -17.25 161.094726562 3.2412109375 163.09375 28 c 0
 174.416992188 168.251953125 165.1875 267.42578125 60.994140625 575 c 0
 46.373046875 618.159179688 43.8193359375 648.516601562 68.994140625 686.5 c 0
 97.494140625 729.5 137.197265625 771.581054688 181.994140625 801 c 0
EndSplineSet
EndChar

StartChar: afii57681
Encoding: 20 1505 3
Width: 900
Flags: HW
LayerCount: 2
Back
SplineSet
52.900390625 776 m 24
 62.9619140625 790.084960938 80.814453125 773.486328125 95.900390625 765 c 0
 127.900390625 747 159.770507812 749.1484375 199.900390625 756 c 0
 281.900390625 770 335.900390625 782 421.900390625 800 c 0
 491.551757812 814.578125 549.900390625 810 603.900390625 787 c 0
 711.904296875 740.998046875 798.900390625 649 831.900390625 529 c 0
 870.227539062 389.629882812 849.900390625 254 761.900390625 150 c 0
 700.065429688 76.921875 639.900390625 37 564.900390625 9 c 0
 494.735351562 -17.1953125 427.647460938 -17.2919921875 357.900390625 10 c 0
 265.900390625 46 203.900390625 106 153.900390625 190 c 0
 120.633789062 245.888671875 117.598632812 294.209960938 137.900390625 356 c 0
 160.900390625 426 175.900390625 449 210.900390625 498 c 0
 219.533203125 510.084960938 245.400390625 514.75 245.900390625 483 c 0
 247.758789062 365.010742188 286.900390625 226 356.900390625 110 c 0
 403.170898438 33.32421875 442.900390625 49 503.900390625 112 c 0
 619.036132812 230.911132812 684.900390625 393 663.900390625 572 c 0
 648.65234375 701.970703125 599.900390625 725 482.900390625 679 c 0
 422.192382812 655.131835938 379.900390625 631 333.900390625 603 c 0
 300.928710938 582.9296875 273.55078125 575.262695312 247.900390625 597 c 0
 188.900390625 647 137.900390625 690 75.900390625 737 c 0
 61.828125 747.66796875 42.63671875 761.630859375 52.900390625 776 c 24
EndSplineSet
Fore
SplineSet
45.744140625 783.080078125 m 0
 55.6953125 797.431640625 84.9925329321 792.457737251 109.18359375 780.62109375 c 0
 144.543945313 763.319335938 178.864342433 760.808098125 242.303710938 771.639648438 c 0
 297.423828125 781.05078125 358.784104632 794.396842974 419 807 c 0
 491.4375 822.161132812 552.120169346 817.399536523 608.280273438 793.479492188 c 0
 720.604492188 745.637695312 811.080105902 649.959968576 845.400390625 525.16015625 c 0
 885.260742188 380.21484375 864.119844401 239.160387067 772.600585938 131 c 0
 708.291992188 54.998046875 645.720600148 13.479768015 567.720703125 -15.640625 c 0
 494.749023438 -42.8837890625 424.977296202 -42.9849956428 352.440429688 -14.6005859375 c 0
 256.760742188 22.83984375 192.279369968 85.2387200417 140.280273438 172.599609375 c 0
 105.68359375 230.723632812 102.526646526 280.978423843 123.640625 345.239257812 c 0
 147.560546875 418.040039062 163.15743711 441.961903312 199.560546875 492.919921875 c 0
 208.5390625 505.48828125 235.440873524 510.339850743 235.9609375 477.319335938 c 0
 237.893554687 354.611328125 278.599269987 210.039244951 351.400390625 89.3994140625 c 0
 399.521484375 9.6572265625 440.840988482 25.9597981074 504.280273438 91.4794921875 c 0
 624.021484375 215.147460938 692.52148049 383.719840677 670.680664062 569.879882812 c 0
 654.822265625 705.048828125 604.119553625 729.001433386 482.440429688 681.16015625 c 0
 428.577148438 659.982421875 388.653976998 638.606984209 348.383789062 614.703125 c 0
 292.223632812 581.3671875 252.703562102 583.065781074 217.34375 613.578125 c 0
 174.673828125 650.3984375 193.964313187 638.591761954 92.5439453125 715.479492188 c 0
 66.201171875 735.450195312 33.484855145 765.399758261 45.744140625 783.080078125 c 0
EndSplineSet
EndChar

StartChar: afii57666
Encoding: 5 1490 4
Width: 653
Flags: HW
HStem: -7 34<198.286 243.74>
VStem: 366.639 38<761.317 808.944> 630.639 27<434.688 496.139>
LayerCount: 2
Back
SplineSet
347.638671875 218 m 0
 399.2578125 226.029296875 414.104492188 195.684570312 390.638671875 171 c 0
 313.638671875 90 223.638671875 26.9990234375 137.638671875 -14 c 0
 110.588867188 -26.8955078125 78.537109375 -19.474609375 69.638671875 9 c 0
 64.638671875 25 55.638671875 69 50.638671875 103 c 0
 47.2890625 125.776367188 57.185546875 147.310546875 78.638671875 154 c 0
 171.638671875 183 257.638671875 204 347.638671875 218 c 0
102.638671875 694 m 0
 167.056640625 741.793945312 212.638671875 767 287.638671875 802 c 0
 314.05859375 814.329101562 339.638671875 820 357.638671875 797 c 24
 441.638671875 692 489.553710938 625.361328125 531.638671875 498 c 0
 569.638671875 383 590.638671875 284 601.638671875 144 c 24
 604.638671875 102 598.331054688 70.5234375 566.638671875 42 c 0
 536.638671875 15 511.4453125 4.5 474.638671875 -10 c 0
 441.638671875 -23 419.638671875 -21 423.638671875 17 c 0
 443.650390625 207.106445312 465.638671875 376 446.638671875 545 c 0
 434.075195312 656.74609375 391.638671875 688 271.638671875 671 c 0
 224.725585938 664.353515625 174.638671875 651 117.638671875 649 c 0
 78.3876953125 647.623046875 71.638671875 671 102.638671875 694 c 0
EndSplineSet
Fore
SplineSet
347.638671875 218 m 0
 399.2578125 226.029296875 414.104492188 195.684570312 390.638671875 171 c 0
 313.638671875 90 223.638671875 26.9990234375 137.638671875 -14 c 0
 110.588867188 -26.8955078125 78.537109375 -19.474609375 69.638671875 9 c 0
 64.638671875 25 55.638671875 69 50.638671875 103 c 0
 47.2890625 125.776367188 57.185546875 147.310546875 78.638671875 154 c 0
 171.638671875 183 257.638671875 204 347.638671875 218 c 0
80.328125 746.704101562 m 0
 155.516601562 774.334960938 299.85546875 795.784179688 396.1875 800.83203125 c 0
 456.638671875 804 478.015625 773.006835938 482.638671875 737 c 0
 503.15625 577.206054688 569.702148438 348.590820312 601.638671875 144 c 0
 608.125 102.446289062 598.331054688 70.5234375 566.638671875 42 c 0
 536.638671875 15 511.4453125 4.5 474.638671875 -10 c 0
 441.638671875 -23 419.638671875 -21 423.638671875 17 c 0
 443.650390625 207.106445312 478.118164062 342.067382812 453.638671875 506 c 0
 437.03125 617.217773438 379.638671875 644 289.638671875 664 c 0
 249.774414062 672.858398438 169.999023438 683.525390625 82.388671875 699.314453125 c 0
 43.7373046875 706.280273438 44.09765625 733.389648438 80.328125 746.704101562 c 0
EndSplineSet
EndChar

StartChar: afii57675
Encoding: 14 1499 5
Width: 900
Flags: HW
LayerCount: 2
Back
SplineSet
372.829101562 -12.5 m 0
 244.7890625 -10 119.206054688 52.861328125 63.369140625 130 c 0
 33.3291015625 171.5 60.697265625 179.486328125 79.369140625 176 c 0
 108.829101562 170.5 129.112304688 166.901367188 159.369140625 156 c 24
 182.5078125 147.663085938 195.736328125 141.813476562 215.369140625 127 c 24
 239.143554688 109.060546875 247.544921875 93.2666015625 269.369140625 73 c 0
 296.829101562 47.5 336.779296875 40.7451171875 368.829101562 62.5 c 1024
77.369140625 804 m 24
 95.6494140625 812.9609375 111.625976562 800.041015625 126.369140625 786 c 0
 147.369140625 766 165.194335938 747.321289062 191.869140625 755 c 0
 257.869140625 774 322.305664062 797.490234375 388.369140625 807.5 c 0
 454.369140625 817.5 507.369140625 822 569.369140625 782 c 0
 619.400390625 749.721679688 659.369140625 726 694.369140625 690 c 0
 759.595703125 622.909179688 777.947265625 566.626953125 794.329101562 474.5 c 0
 816.2890625 351 793.7890625 265.5 708.329101562 146.5 c 0
 622.719726562 27.29296875 473.587890625 -14.4677734375 372.829101562 -12.5 c 0
 244.7890625 -10 119.206054688 52.861328125 63.369140625 130 c 0
 33.3291015625 171.5 60.697265625 179.486328125 79.369140625 176 c 0
 108.829101562 170.5 129.112304688 166.901367188 159.369140625 156 c 24
 182.5078125 147.663085938 195.736328125 141.813476562 215.369140625 127 c 24
 239.143554688 109.060546875 247.544921875 93.2666015625 269.369140625 73 c 0
 296.829101562 47.5 336.779296875 40.7451171875 368.829101562 62.5 c 0
 451.329101562 118.5 529.919921875 192.774414062 586.829101562 277 c 0
 649.329101562 369.5 659.55859375 474.17578125 658.329101562 607 c 0
 657.829101562 661 625.369140625 697 548.869140625 685.5 c 0
 433.325195312 668.130859375 340.370117188 637.498046875 241.369140625 586.5 c 0
 218.745117188 574.845703125 198.95703125 579.897460938 181.369140625 607.5 c 0
 145.369140625 664 117.869140625 709 75.369140625 761 c 0
 64.744140625 773.999023438 62.294921875 796.610351562 77.369140625 804 c 24
EndSplineSet
Fore
SplineSet
761.900390625 150 m 0
 850.027903164 253.891970496 870.227539062 389.629882812 831.900390625 529 c 0
 798.900390625 649 711.904296875 740.998046875 603.900390625 787 c 0
 549.900390625 810 491.551757812 814.578125 421.900390625 800 c 0
 335.900390625 782 281.900390625 770 199.900390625 756 c 0
 159.770507812 749.1484375 127.900390625 747 95.900390625 765 c 0
 80.814453125 773.486328125 62.9619140625 790.084960938 52.900390625 776 c 24
 42.63671875 761.630859375 61.828125 747.66796875 75.900390625 737 c 0
 137.900390625 690 188.900390625 647 247.900390625 597 c 0
 273.55078125 575.262695312 300.928710938 582.9296875 333.900390625 603 c 0
 379.900390625 631 422.192382812 655.131835938 482.900390625 679 c 0
 599.900390625 725 648.65234375 701.970703125 663.900390625 572 c 0
 684.900390625 393 619.019507768 230.927227766 503.900390625 112 c 0
 468.5 75.4285736084 435.5 57.4285736084 388.5 49.4287109375 c 0
 350.313475425 42.9289885443 296.829044235 47.4999382665 269.369140625 73 c 0
 247.544921875 93.2666015625 239.143554688 109.060546875 215.369140625 127 c 24
 195.736328125 141.813476562 182.5078125 147.663085938 159.369140625 156 c 24
 129.112304688 166.901367188 108.829101562 170.5 79.369140625 176 c 0
 60.697265625 179.486328125 33.3291015625 171.5 63.369140625 130 c 0
 119.206054688 52.861328125 244.766294996 -13.1474392155 372.829101562 -12.5 c 0
 556.5 -11.5714263916 671.5 43.4285736084 761.900390625 150 c 0
EndSplineSet
EndChar

StartChar: afii57689
Encoding: 28 1513 6
Width: 1156
Flags: HW
HStem: -175.5 188<487.744 743.87>
VStem: 620.899 38.4658<659.688 766.948>
LayerCount: 2
Fore
SplineSet
414.748046875 227.759765625 m 4
 472.016601562 255.713867188 521.130859375 290.541015625 573.411132812 344.790039062 c 4
 656.366210938 430.868164062 683.985351562 531.31640625 661.848632812 627.1328125 c 4
 642.7890625 709.631835938 575.543945312 765.168945312 486.887695312 784.870117188 c 4
 442.559570312 794.720703125 463.821289062 768.735351562 469.844726562 761.73046875 c 4
 494.344726562 733.240234375 520.245117188 700.900390625 521.782226562 637.16796875 c 4
 523.991210938 545.641601562 436.401367188 325.8828125 385.5625 266.444335938 c 4
 362.184570312 239.111328125 380.303710938 210.946289062 414.748046875 227.759765625 c 4
896.33203125 623.619140625 m 0
 900.698242188 442.7109375 804.729492188 263.858398438 651.53515625 120.666015625 c 0
 570.37109375 44.80078125 502.505859375 29.4326171875 420.221679688 136.034179688 c 0
 295.739257812 297.3046875 210.237304688 476.180664062 182.3046875 617.922851562 c 0
 174.7890625 656.064453125 138.9765625 658.801757812 129.28125 647.119140625 c 0
 89.9736328125 599.755859375 73.556640625 577.065429688 55.830078125 500.72265625 c 0
 40.181640625 433.333984375 54.857421875 374.553710938 114.1796875 297 c 0
 203.33984375 180.440429688 304.435546875 88.732421875 443.079101562 16.087890625 c 0
 548.188476562 -38.9853515625 626.379882812 -14.203125 714.728515625 25.3427734375 c 0
 809.166015625 67.6142578125 886.814453125 119.530273438 970.0859375 205.936523438 c 0
 1088.59472656 328.905273438 1128.05078125 472.403320312 1096.42675781 609.284179688 c 0
 1069.19824219 727.139648438 973.131835938 806.474609375 846.481445312 834.622070312 c 0
 783.158203125 848.6953125 813.530273438 811.571289062 822.134765625 801.565429688 c 0
 857.134765625 760.866210938 894.134765625 714.666015625 896.33203125 623.619140625 c 0
EndSplineSet
EndChar

StartChar: afii57686
Encoding: 25 1510 7
Width: 856
Flags: HW
HStem: 18.5 120<250.341 394.682>
LayerCount: 2
Back
SplineSet
519.334960938 751.172851562 m 0
 500.334960938 777.172851562 513.834960938 792.172851562 544.334960938 788.172851562 c 0
 625.130859375 777.577148438 686.334960938 761.672851562 765.334960938 739.172851562 c 4
 796.27734375 730.360351562 815.293945312 706.690429688 808.834960938 675.172851562 c 4
 783.834960938 553.172851562 728.834960938 413.172851562 677.334960938 321.172851562 c 0
 667.560546875 303.7109375 652.334960938 285.672851562 634.334960938 293.172851562 c 0
 614.775390625 301.322265625 623.1015625 326.640625 628.334960938 347.172851562 c 0
 641.334960938 398.172851562 647.334960938 432.672851562 654.834960938 482.672851562 c 0
 662.510742188 533.842773438 648.834960938 570.672851562 630.334960938 605.172851562 c 0
 598.119140625 665.250976562 559.516601562 696.1875 519.334960938 751.172851562 c 0
220.212890625 772.665039062 m 0
 233.022460938 797.431640625 252.545898438 787.666992188 257.544921875 764.666015625 c 0
 277.637695312 672.223632812 309.071289062 618.588867188 364.87890625 538 c 0
 421.896484375 455.6640625 477.87890625 408.5 540.87890625 351 c 0
 638.243164062 262.135742188 694.813476562 175.504882812 735.37890625 85.5 c 0
 751.37890625 50 736.611328125 18.6640625 693.87890625 18 c 0
 597.37890625 16.5 522.405273438 17.2890625 430.37890625 18.5 c 0
 354.37890625 19.5 303.87890625 16.5 234.37890625 -8.5 c 0
 180.06640625 -28.037109375 140.6171875 -43.8173828125 93.87890625 -57 c 0
 54.87890625 -68 41.37890625 -48 55.37890625 -24 c 0
 84.55078125 26.0078125 118.608398438 70.7294921875 156.37890625 108.5 c 0
 180.37890625 132.5 199.91015625 140.645507812 256.87890625 138.5 c 0
 376.37890625 134 449.50390625 92.0849609375 566.87890625 78 c 0
 591.87890625 75 600.424804688 94.0888671875 593.87890625 120 c 0
 581.87890625 167.5 570.735351562 202.754882812 543.87890625 248.5 c 0
 523.633789062 282.984375 504.48828125 301.833984375 470.87890625 323.5 c 0
 408.866210938 363.474609375 375.440429688 366.147460938 309.545898438 399.333984375 c 0
 267.788085938 420.364257812 229.545898438 440.998046875 193.545898438 465.998046875 c 0
 150.952148438 495.577148438 136.879882812 524.999023438 150.212890625 585.665039062 c 0
 165.326171875 654.4296875 190.212890625 714.665039062 220.212890625 772.665039062 c 0
EndSplineSet
Fore
SplineSet
563.344726562 765.544921875 m 0
 548.68359375 793.078125 564.23828125 804.821289062 592.728515625 793.416992188 c 0
 662.80078125 765.369140625 724.3515625 724.486328125 770.653320312 685.172851562 c 0
 795.0859375 664.426757812 813.06640625 645.57421875 803.5859375 618.109375 c 0
 768.657226562 516.920898438 717.734375 415.766601562 654.967773438 344.143554688 c 0
 643.0546875 330.548828125 625.795898438 317.620117188 609.477539062 328.283203125 c 0
 591.74609375 339.870117188 603.374023438 360.8515625 611.336914062 378.1953125 c 0
 631.118164062 421.278320312 641.802734375 451.029296875 656.130859375 494.407226562 c 0
 670.794921875 538.798828125 662.809570312 574.923828125 649.834960938 610 c 0
 627.241210938 671.080078125 594.3515625 707.317382812 563.344726562 765.544921875 c 0
220.212890625 772.665039062 m 0
 233.022460938 797.431640625 252.545898438 787.666992188 257.544921875 764.666015625 c 0
 277.637695312 672.223632812 309.071289062 618.588867188 364.87890625 538 c 0
 421.896484375 455.6640625 477.87890625 408.5 540.87890625 351 c 0
 638.243164062 262.135742188 694.813476562 175.504882812 735.37890625 85.5 c 0
 751.37890625 50 736.611328125 18.6640625 693.87890625 18 c 0
 597.37890625 16.5 522.405273438 17.2890625 430.37890625 18.5 c 0
 354.37890625 19.5 303.87890625 16.5 234.37890625 -8.5 c 0
 180.06640625 -28.037109375 140.6171875 -43.8173828125 93.87890625 -57 c 0
 54.87890625 -68 41.37890625 -48 55.37890625 -24 c 0
 84.55078125 26.0078125 118.608398438 70.7294921875 156.37890625 108.5 c 0
 180.37890625 132.5 199.91015625 140.645507812 256.87890625 138.5 c 0
 376.37890625 134 449.50390625 92.0849609375 566.87890625 78 c 0
 591.87890625 75 600.424804688 94.0888671875 593.87890625 120 c 0
 581.87890625 167.5 570.735351562 202.754882812 543.87890625 248.5 c 0
 523.633789062 282.984375 504.48828125 301.833984375 470.87890625 323.5 c 0
 408.866210938 363.474609375 375.440429688 366.147460938 309.545898438 399.333984375 c 0
 267.788085938 420.364257812 229.545898438 440.998046875 193.545898438 465.998046875 c 0
 150.952148438 495.577148438 136.879882812 524.999023438 150.212890625 585.665039062 c 0
 165.326171875 654.4296875 190.212890625 714.665039062 220.212890625 772.665039062 c 0
EndSplineSet
EndChar

StartChar: afii57676
Encoding: 15 1500 8
Width: 853
Flags: HW
LayerCount: 2
Fore
SplineSet
57.0108032227 1063 m 0
 71.1030776963 1068.95685823 84.6854855961 1044.33110413 93.0108032227 1026 c 0
 109.133605957 990.5 121.521617267 948.761211983 147.633789062 917.5 c 0
 183.133605957 875 230.992996226 846.657497925 300.010803223 831 c 0
 450.419921875 796.877929688 600.989257812 799 711 797 c 0
 768.98828125 795.9453125 802.206311721 760.43834264 810 709 c 0
 825 610 819.054326902 519.33436506 788 430 c 0
 751.114688386 323.891569329 701.660879057 225.54721679 629 151 c 0
 557.857182165 78.0102545821 464.244807264 28.0817634637 359 -7 c 0
 323 -19 289.801544624 5.45428217941 325 47 c 0
 508 263 630 455 698 703 c 0
 706.526766801 734.097620098 678.529296875 759.379882812 648 749 c 0
 548 715 436.5 652.5 325.633789062 623 c 0
 219.458969359 594.748315787 160.633605957 607 128.133789062 710 c 0
 97.0155805166 808.621339641 81.0565065962 884.297411941 55.6337890625 1005 c 0
 51.5947265625 1024.17675781 41.633605957 1056.5 57.0108032227 1063 c 0
EndSplineSet
EndChar

StartChar: .notdef
Encoding: 30 -1 9
Width: 1000
Flags: W
HStem: 694 46<533.474 731.24>
LayerCount: 2
Fore
SplineSet
698 716 m 4
 716.044634367 712.777743863 702.791766093 686.692674806 698 669 c 4
 672 573 676 511 691 432 c 4
 705.760619001 354.260739928 718 300 710 230 c 4
 704.236745631 179.57152427 677.955566205 157.198412435 653 113 c 4
 636.4 83.6 625.6 56 615 25 c 4
 609.907248462 10.1061039935 605.281510799 -11.9330314038 590.400390625 -6.80078125 c 4
 578.8 -2.8 586.927734375 33.6953125 590.799804688 48.0009765625 c 4
 612.400390625 127.80078125 612.469277563 166.126317658 601 242 c 4
 588 328 590.4 409.2 605.998046875 489.198242188 c 4
 620.041902745 561.225451244 639.692506888 604.887250615 667 673 c 4
 674.693359375 692.189453125 686.8 718 698 716 c 4
44 824 m 28
 59.1510952587 846.726642888 88.5316655771 824.139052478 113 812 c 4
 177 780.248784524 230.846497622 775.062253176 272 796 c 4
 329 825 386 813 437 795 c 4
 521.487770507 765.18078688 580 739 658 740 c 4
 701.178758448 740.553573826 728.702118163 758.608031705 765 782 c 4
 810 811 814 778 806 758 c 4
 798.52269893 739.306747326 791.133123613 730.066889325 779 714 c 4
 761.534392987 690.871745163 750.865704773 692.834617911 731 694 c 4
 678.972404524 697.052095489 649.754355006 700.859652796 598 707 c 4
 539 714 495.786067605 706.898379262 442 676 c 4
 375.115733435 637.577123463 327.918945312 603.736328125 277.916992188 617.333007812 c 4
 257.646484375 622.845703125 238.654150444 640.365106302 215 662 c 4
 160.591398417 711.763964863 129 752 85 770 c 4
 60.5267660271 780.011777534 29.33203125 801.999023438 44 824 c 28
EndSplineSet
Validated: 3109
EndChar

StartChar: afii57684
Encoding: 23 1508 10
Width: 910
Flags: HW
LayerCount: 2
Fore
SplineSet
258.125 678.5 m 0
 360.45703125 757.5 437.95703125 797.5 532.458007812 815 c 0
 621.75 831.53515625 692.143554688 806.954101562 728.625 741 c 0
 817.125 581 865.125 321 860.625 66 c 0
 859.600585938 7.955078125 832.125 -21 767.625 -16 c 0
 598.208984375 -2.8671875 510.448242188 8.2177734375 345.625 18 c 24
 293.455078125 21.0966796875 263.313476562 24.7119140625 211.625 17 c 0
 165.510742188 10.1201171875 139.625 -8 92.125 -20 c 0
 69.384765625 -25.7451171875 39.564453125 -12.1845703125 53.625 22 c 0
 79.125 84 104.125 134.5 135.625 187 c 0
 160.5 228.459960938 197.5859375 242.611328125 244.125 229.5 c 0
 405.625 184 507.474609375 133.877929688 675.625 92 c 0
 716.146484375 81.908203125 752.837890625 66.7314453125 782.625 96 c 24
 813.028320312 125.874023438 807.01171875 165.651367188 790.625 205 c 0
 707.125 405.5 639.8671875 515.413085938 499.125 679.5 c 0
 463.95703125 720.5 429.51171875 727.073242188 398.458007812 701.5 c 0
 372.958007812 680.5 342.791015625 645.5 322.458007812 621.5 c 0
 290.254882812 583.489257812 284.500976562 563.716796875 306.625 530 c 0
 344.684570312 471.994140625 372.817382812 432.655273438 418.625 373 c 0
 440.125 345 427.625 317 379.125 328 c 0
 288.737304688 348.5 200.182617188 382.094726562 133.625 423 c 0
 85.625 452.5 86.525390625 504.750976562 115.125 540.5 c 0
 153.125 588 201.20703125 634.560546875 258.125 678.5 c 0
EndSplineSet
EndChar

StartChar: NameMe.11
Encoding: 31 -1 11
Width: 1000
Flags: W
HStem: 764 52<255.506 362.416>
LayerCount: 2
Fore
SplineSet
290 816 m 28
 395.578319042 826.6610029 458 831.5 562 823 c 4
 637.120557952 816.860339014 700.519086054 806.954194705 737 741 c 4
 825.5 581 873.5 321 869 66 c 4
 867.975679702 7.95518310885 840.5 -21 776 -16 c 4
 606.58402158 -2.86697841703 518.823307529 8.21732167543 354 18 c 28
 301.830078125 21.0966796875 271.689128534 24.7116094644 220 17 c 4
 173.885742188 10.1201171875 148 -8 100.5 -20 c 4
 77.759765625 -25.7451171875 47.9402805636 -12.1844158846 62 22 c 4
 87.5 84 112.5 134.5 144 187 c 4
 168.87593256 228.459887601 205.9609375 242.611328125 252.5 229.5 c 4
 414 184 515.849678735 133.877510482 684 92 c 4
 724.521484375 81.908203125 761.213626959 66.7316508376 791 96 c 28
 821.403320312 125.874023438 815.386923216 165.651759223 799 205 c 4
 715.5 405.5 649.5 516.5 507.5 679.5 c 4
 453.168519135 741.866418175 387.551648779 758.840521951 305 764 c 4
 281 765.5 253.5 769.5 255 792 c 4
 256.100933468 808.514002024 273.533203125 814.336914062 290 816 c 28
356 698 m 4
 375.161083525 677.326199355 359.817382812 645.84765625 338 628 c 4
 299.439453125 596.45703125 292.876531523 563.717185898 315 530 c 4
 353.060331298 471.99430044 381.192958649 432.655681759 427 373 c 4
 448.5 345 436.000034958 317.000154134 387.5 328 c 4
 297.112304688 348.5 208.558151688 382.094469275 142 423 c 4
 94 452.5 94.9007357975 504.750919747 123.5 540.5 c 4
 161.5 588 208.5 636 266.5 678.5 c 4
 293.67047506 698.409399828 337 718.5 356 698 c 4
EndSplineSet
Validated: 3105
EndChar

StartChar: afii57665
Encoding: 4 1489 12
Width: 856
Flags: HW
LayerCount: 2
Back
SplineSet
254.413085938 180 m 0
 432.413085938 140 591.413085938 100 773.413085938 32 c 0
 822.990234375 13.4765625 814.295898438 -22.2861328125 763.413085938 -17 c 0
 532.413085938 7 325.413085938 4 106.413085938 -17 c 0
 46.5546875 -22.740234375 39.4130859375 4 61.4130859375 43 c 0
 86.2919921875 87.1025390625 116.413085938 120 141.413085938 146 c 0
 176.399414062 182.385742188 204.845703125 191.138671875 254.413085938 180 c 0
85.4130859375 817 m 0
 96.6201171875 822.603515625 106.708007812 799.705078125 118.413085938 788 c 0
 136.413085938 770 160.424804688 767.846679688 188.413085938 770 c 0
 279.413085938 777 345.413085938 797 421.413085938 808 c 0
 524.345703125 822.8984375 606.771484375 810.99609375 681.413085938 764 c 0
 762.413085938 713 806.413085938 632 806.413085938 532 c 0
 806.413085938 473 782.7421875 413.65234375 747.413085938 346 c 0
 700.413085938 256 653.29296875 205.16015625 566.413085938 140 c 0
 550.413085938 128 527.217773438 133.620117188 543.413085938 169 c 0
 608.413085938 311 656.151367188 489.08984375 640.413085938 615 c 0
 629.413085938 703 583.413085938 730 480.413085938 697 c 0
 403.60546875 672.391601562 341.413085938 638 252.413085938 599 c 0
 233.288085938 590.619140625 209.387695312 592.224609375 199.413085938 611 c 0
 165.413085938 675 132.413085938 726 95.4130859375 782 c 0
 87.7548828125 793.590820312 75.4130859375 812 85.4130859375 817 c 0
EndSplineSet
Fore
SplineSet
551.392578125 191.723632812 m 0
 533.821289062 158.268554688 553.147460938 138.405273438 579.392578125 154 c 0
 717.392578125 236 804.391601562 387 802.392578125 530 c 0
 800.952148438 632.995117188 732.243164062 733.048828125 628.002929688 787.041015625 c 0
 575.884765625 814.036132812 518.046875 822.98828125 447.495117188 813.6875 c 0
 360.385742188 802.205078125 305.635742188 794.298828125 222.815429688 786.502929688 c 4
 182.284179688 782.688476562 150.342773438 782.942382812 119.787109375 803.296875 c 4
 105.381835938 812.893554688 88.8271484375 830.787109375 77.7353515625 817.499023438 c 28
 66.4208984375 803.94140625 84.5087890625 788.575195312 97.73828125 776.879882812 c 4
 156.029296875 725.3515625 180.819335938 694.194335938 235.892578125 639.900390625 c 4
 259.8359375 616.295898438 287.712890625 621.8828125 322.100585938 639.416992188 c 4
 370.075195312 663.879882812 414.061523438 684.763671875 476.392578125 704 c 0
 596.51953125 741.073242188 643.403320312 714.443359375 648.8359375 583.694335938 c 0
 654.225585938 453.971679688 621.392578125 325 551.392578125 191.723632812 c 0
254.413085938 180 m 0
 432.413085938 140 591.413085938 100 773.413085938 32 c 0
 822.990234375 13.4765625 814.295898438 -22.2861328125 763.413085938 -17 c 0
 532.413085938 7 325.413085938 4 106.413085938 -17 c 0
 46.5546875 -22.740234375 39.4130859375 4 61.4130859375 43 c 0
 86.2919921875 87.1025390625 116.413085938 120 141.413085938 146 c 0
 176.399414062 182.385742188 204.845703125 191.138671875 254.413085938 180 c 0
EndSplineSet
EndChar

StartChar: afii57688
Encoding: 27 1512 13
Width: 828
Flags: HW
VStem: 602.316 178<22.5325 231.047>
LayerCount: 2
Fore
SplineSet
109.31640625 826 m 0
 160.623046875 795.404296875 224.631835938 774.245117188 303.31640625 769 c 0
 393.31640625 763 444.801757812 768.447265625 532.31640625 749 c 0
 635.81640625 726 711.28125 643.326171875 723.31640625 531 c 0
 739.81640625 377 757.81640625 243 778.31640625 66.5 c 0
 781.612304688 38.12109375 765.788085938 21.0517578125 748.81640625 12 c 0
 726.31640625 0 689.31640625 -15.5 641.31640625 -28 c 0
 619.116210938 -33.78125 600.31640625 -22 602.31640625 6 c 0
 609.275390625 103.436523438 615.013671875 183.51171875 631.31640625 296 c 0
 646.31640625 399.5 648.31640625 484.494140625 648.31640625 571 c 0
 648.31640625 640 612.81640625 655.5 541.31640625 645 c 0
 450.075195312 631.600585938 392.31640625 605 295.31640625 585 c 0
 249.467773438 575.546875 205.666992188 569.749023438 177.31640625 607 c 0
 134.31640625 663.5 96.619140625 720.95703125 60.31640625 786 c 0
 36.31640625 829 54.81640625 858.5 109.31640625 826 c 0
EndSplineSet
EndChar

StartChar: NameMe.14
Encoding: 32 -1 14
Width: 546
Flags: W
LayerCount: 2
Fore
SplineSet
142.5 771 m 0
 142.900119069 787.002809276 160.084856783 802.915175383 175.5 787.5 c 0
 233.99987793 729 296.798428364 713.981405578 354.99987793 703 c 0
 407.99987793 693 419.287109375 658.970703125 399.5 615.5 c 0
 366.5 543 342.226691538 497.084221966 340.99987793 408 c 0
 340.162109375 347.166015625 376.49987793 306.5 400.99987793 264 c 0
 425.375121086 221.716414934 429.356309692 179.033610365 406.99987793 139 c 0
 385.49987793 100.5 362.49987793 55 331.99987793 14 c 0
 318.723576301 -3.84683169759 290.242348431 -21.9902616391 276.5 -4.5 c 0
 265.5 9.5 270.065429688 29.6630859375 279 52 c 0
 288 74.5 281.85573781 121.538338873 276.5 153.5 c 0
 261 246 255.5 353 286 446.5 c 0
 304.50940378 503.241942736 285 523.5 253.5 539 c 0
 233.944826017 548.622387198 211.270996806 560.812437989 195.99987793 577 c 0
 177.688827713 596.409924266 163.030339216 625.635770178 155.99987793 652 c 0
 145.99987793 689.5 141.49987793 731 142.5 771 c 0
EndSplineSet
Validated: 3105
EndChar

StartChar: NameMe.15
Encoding: 33 -1 15
Width: 936
Flags: W
LayerCount: 2
Fore
SplineSet
671.5 678.5 m 4
 680.76039597 693.41080707 695 690.5 691.764160156 674 c 4
 686.7084061 648.220002859 676.5 616 668.764160156 580 c 4
 660.374274792 540.956291854 654.335407042 507.091081433 662.5 468 c 4
 679 389 706.5 316.5 723.764160156 240 c 4
 735.618815105 187.470302908 729.845286083 145.857014846 694.764160156 105 c 4
 666 71.5 635.821468843 38.2058130771 593.764160156 0 c 4
 574.5 -17.5 550 0 571.763671875 24 c 4
 605.802734375 61.5341796875 609.5 107.5 603.764160156 171 c 4
 596.993522875 245.9559749 591.221250792 296.538883119 585.764160156 377 c 4
 582 432.5 582.327907202 467.041819938 600.764160156 520 c 4
 622 581 642 631 671.5 678.5 c 4
117.763671875 802.5 m 4
 154.83075557 768.374219361 253.482635776 772.252717003 319.764160156 782 c 4
 421.764160156 797 506.764160156 805 584.263671875 783.5 c 4
 606.487927775 777.334522422 622.263671875 770 646.263671875 764 c 4
 676.53515625 756.432617188 699.351853116 757.023960633 729.764160156 764 c 4
 769 773 796.412621068 789.205059042 833.764160156 805 c 4
 851.5 812.5 865.736328125 807.5 859 787 c 4
 850.16015625 760.095703125 832.5 731 814.764160156 707 c 4
 800.878120456 688.209519496 779.890248709 688.675910656 756.764160156 692 c 4
 718.5 697.5 686.5 707 649.5 713.5 c 4
 614.909947547 719.576630836 582.462994991 717.759233518 548 711 c 4
 440.69921875 689.955078125 409.364922032 670.190741729 301 645.5 c 4
 261.5 636.5 238.795126577 639.0724345 213.764160156 659 c 4
 162.264160156 700 125.264160156 736.5 89.7641601562 787 c 4
 71.9339875884 812.364048301 86.2641601562 831.5 117.763671875 802.5 c 4
EndSplineSet
Validated: 3105
EndChar

StartChar: NameMe.16
Encoding: 34 -1 16
Width: 742
Flags: W
LayerCount: 2
Fore
SplineSet
93 826 m 0
 179.091250707 778.423256188 262.5 746.5 359 742.5 c 0
 482.543945312 737.37890625 576.97718242 678.765760296 623 564 c 0
 662.5 465.5 674 368.5 661 271.5 c 0
 651.362304688 199.588867188 634.388114186 139.038382984 619 94 c 0
 598.5 34 566.000010233 19.0000786689 504.5 27 c 0
 400.740234375 40.4970703125 302.659179688 9.5732421875 205.5 -15.5 c 0
 174.5 -23.5 158.276724185 -13.0870444884 149.5 15.5 c 0
 132 72.5 94.001060135 120.500850226 53.5 171 c 0
 43.1591796875 183.893554688 28.9012368296 202.753513068 40 215 c 0
 51.455078125 227.639648438 71.869210687 214.254355263 85.5 204 c 0
 140 163 175.472388135 152.406978381 231 173 c 0
 306.5 201 384.5 207.5 461 160 c 0
 484.19547209 145.597582689 508.743467401 143.18614789 531 159 c 0
 588 199.5 621 268 617 345 c 0
 612.038034105 440.517843475 578.5 527 492 556 c 0
 411.945832586 582.838969422 335 559.5 266 536 c 0
 228.42932783 523.204191362 191.5 532 172 575 c 0
 135.579967343 655.310841244 104 724 56 796 c 0
 33.6651359116 829.502296133 55 847 93 826 c 0
EndSplineSet
Validated: 3105
EndChar

StartChar: afii57672
Encoding: 11 1496 17
Width: 902
Flags: HW
VStem: 194.266 49<776.421 811.827>
LayerCount: 2
Back
SplineSet
328.266601562 566 m 0
 350.408203125 633.119140625 384.266601562 685.5 409.266601562 734 c 0
 424.252929688 763.073242188 445.2109375 780.393554688 476.766601562 789 c 0
 553.766601562 810 649.266601562 824 750.766601562 815 c 0
 805.329101562 810.162109375 847.624023438 771.654296875 851.266601562 720 c 0
 856.766601562 642 855.266601562 575.5 851.766601562 491.5 c 0
 849.321289062 432.810546875 846.805664062 392.94921875 824.766601562 338.5 c 0
 782.266601562 233.5 755.645507812 161.08984375 666.266601562 84 c 0
 599.599609375 26.5 522.93359375 3.5 420.599609375 -13.5 c 0
 386.53515625 -19.1591796875 359.6953125 -14.078125 338.266601562 13 c 0
 219.504882812 163.068359375 129.099609375 309.5 69.599609375 438 c 0
 42.55859375 496.3984375 43.96484375 528.904296875 70.93359375 587.334960938 c 0
 104.93359375 661.001953125 140.266601562 732.666992188 194.266601562 808 c 0
 212.626953125 833.615234375 246.685546875 819.459960938 243.266601562 785.5 c 0
 221.266601562 567 231.266601562 424 298.766601562 198.5 c 0
 309.97265625 161.061523438 327.266601562 148 360.766601562 153 c 0
 423.765625 162.40234375 473.766601562 175.5 527.766601562 197 c 0
 602.413085938 226.720703125 645.40625 265.118164062 686.766601562 334 c 0
 752.986328125 444.283203125 786.766601562 527 793.266601562 643 c 0
 796.34765625 697.995117188 756.766601562 706.5 710.266601562 690 c 0
 582.412109375 644.631835938 502.096679688 587.205078125 372.766601562 521 c 0
 330.766601562 499.5 312.266601562 517.5 328.266601562 566 c 0
EndSplineSet
Fore
SplineSet
328.266601562 566 m 0
 350.408203125 633.119140625 384.266601562 685.5 409.266601562 734 c 0
 424.252929688 763.073242188 445.135742188 780.672851562 476.766601562 789 c 0
 705.451171875 849.204101562 862.72265625 754.442382812 851.766601562 491.5 c 0
 846.454101562 364 771.451171875 174.721679688 666.266601562 84 c 0
 599.599609375 26.5 522.93359375 3.5 420.599609375 -13.5 c 0
 386.53515625 -19.1591796875 359.6953125 -14.078125 338.266601562 13 c 0
 219.504882812 163.068359375 129.099609375 309.5 69.599609375 438 c 0
 42.55859375 496.3984375 43.96484375 528.904296875 70.93359375 587.334960938 c 0
 104.93359375 661.001953125 140.266601562 732.666992188 194.266601562 808 c 0
 212.626953125 833.615234375 246.685546875 819.459960938 243.266601562 785.5 c 0
 221.266601562 567 231.266601562 424 298.766601562 198.5 c 0
 309.97265625 161.061523438 327.266601562 148 360.766601562 153 c 0
 578.451171875 185.48828125 700.451171875 320 756.451171875 604 c 0
 767.106445312 658.041015625 719.951171875 667.5 673.451171875 651 c 0
 587.451171875 620.483398438 486.451171875 579.1953125 372.766601562 521 c 0
 330.766601562 499.5 312.266601562 517.5 328.266601562 566 c 0
EndSplineSet
EndChar

StartChar: afii57690
Encoding: 29 1514 18
Width: 886
Flags: HW
HStem: 10 127.5<95.0536 190.558>
VStem: 291.957 52<425.24 569.577>
LayerCount: 2
Back
SplineSet
317.956054688 570 m 24
 337.552734375 570 343.810546875 546.595703125 343.956054688 527 c 0
 345.290039062 347.5 356.127929688 225 367.790039062 47.5 c 0
 370.358398438 8.41015625 352.123046875 -7.5 312.290039062 -4.5 c 0
 279.727539062 -2.0478515625 242.396484375 6.2724609375 209.956054688 10 c 0
 170.790039062 14.5 126.290039062 11 91.7900390625 -8.5 c 0
 68.2255859375 -21.8193359375 49.2900390625 -18 55.7900390625 7 c 0
 64.1845703125 39.2802734375 76.6240234375 76 89.7900390625 107 c 0
 99.3466796875 129.500976562 119.856445312 136.708007812 144.290039062 137.5 c 0
 175.124023438 138.5 192.05859375 151.059570312 204.790039062 187.5 c 0
 248.290039062 312 263.790039062 395 291.956054688 527 c 0
 296.045898438 546.166015625 298.358398438 570 317.956054688 570 c 24
50.9560546875 821 m 0
 55.0185546875 831.561523438 70.0263671875 825.42578125 79.9560546875 820 c 0
 128.456054688 793.5 169.456054688 787 248.956054688 793.5 c 0
 381.14453125 804.307617188 474.456054688 816.5 587.956054688 819.5 c 0
 647.1328125 821.064453125 683.456054688 822 725.956054688 780 c 0
 754.549804688 751.743164062 757.956054688 711.5 752.956054688 674 c 0
 740.258789062 578.768554688 742.95703125 519 765.956054688 428 c 0
 784.90625 353.022460938 808.43359375 314.32421875 825.956054688 239 c 24
 834.7265625 201.30078125 840.388671875 177.986328125 832.956054688 140 c 0
 828.45703125 117 816.40625 105.776367188 795.956054688 100 c 0
 730.45703125 81.5 702.314453125 35.6328125 655.956054688 2 c 0
 630.45703125 -16.5 596.45703125 -18 601.956054688 19 c 0
 633.033203125 228.0703125 668.934570312 387.625976562 692.956054688 619 c 0
 702.456054688 710.5 644.64453125 712.302734375 589.956054688 698 c 0
 492.456054688 672.5 413.456054688 651.5 302.956054688 637.5 c 0
 242.09375 629.7890625 191.956054688 640 152.456054688 691 c 0
 133.541992188 715.420898438 121.956054688 735.5 103.956054688 758 c 0
 91.892578125 773.080078125 83.9560546875 783.5 70.4560546875 791.5 c 0
 59.3798828125 798.064453125 46.333984375 808.982421875 50.9560546875 821 c 0
EndSplineSet
Fore
SplineSet
133.528320312 106.849609375 m 0
 161.279296875 111.635742188 175.252133711 135.601508048 186.7109375 173.604492188 c 0
 225.861328125 303.446289062 239.804043989 388.350826487 265.16015625 523.807617188 c 0
 268.841796875 543.475585938 270.922869408 567.593619198 288.560546875 570 c 0
 306.197265625 572.40625 310.171888521 549.443451412 311.9609375 530.192382812 c 0
 327.928710937 358.37109375 334.22881128 220.230467299 333.411132812 53.619140625 c 0
 333.21875 14.4189453125 319.374953139 -2.11664080209 283.4609375 -5.1953125 c 0
 194.728515625 -12.8017578125 109.228714361 -10.4639530674 26.87890625 -1.7001953125 c 0
 -18.3515625 3.11328125 -9.57104473521 74.3250158358 30.478515625 82.7900390625 c 0
 65.8330078125 90.2626953125 111.538186695 103.057032929 133.528320312 106.849609375 c 0
296.956054688 627.641601562 m 0
 399 629.71484375 513.499903571 641.698796266 611 658.666992188 c 0
 665.688476562 668.184570312 692.623420978 653.027117512 686.956054688 575.021484375 c 0
 672.700257824 378.8046875 800.634811114 1254.45599778 617.018554688 19 c 0
 611.51953125 -18 645.519259573 -16.4996255346 671.018554688 2 c 0
 717.376953125 35.6328125 733.062273431 46.000304455 768 72 c 0
 814.963867188 106.94921875 806.041327371 161.749454445 798 211 c 0
 772.202727904 369 743.100333096 416.531184483 746.956054688 624.772460938 c 0
 747.655273438 662.536132812 748.549874512 702.376041473 719.956054688 733.134765625 c 0
 677.456054688 778.852539062 641.132860074 781.095505797 581.956054688 784.708007812 c 0
 468.456054688 791.63671875 322.187747116 790.875858482 190 790 c 0
 149.46875 789.731445312 117.527302284 792.779561028 86.9716796875 815.807617188 c 0
 72.56640625 826.6640625 56.8448151897 846.932537388 44.919921875 833.688476562 c 0
 32.693359375 820.109375 51.8760296209 804.360404645 64.9228515625 791.319335938 c 0
 107 749.260742188 141.000631315 708.286731692 186 660.849609375 c 0
 210.173828125 635.366210938 252.977558143 626.748083832 296.956054688 627.641601562 c 0
EndSplineSet
EndChar

StartChar: afii57682
Encoding: 21 1506 19
Width: 801
Flags: HW
LayerCount: 2
Fore
SplineSet
139.553222656 811 m 0
 192.117066114 815.852047088 236.553222656 816.5 282.553222656 815 c 0
 331.888315528 813.391246972 365.540039062 801.681640625 393.052734375 766 c 0
 408.552734375 745.897460938 424.334740644 714.867392078 438.052734375 639 c 0
 462.553222656 503.5 462.670331111 395.412851554 443.553222656 260 c 0
 437.553222656 217.5 463.329601738 204.382784823 489.052734375 241 c 0
 531.553222656 301.5 563.501383484 353.827539625 598.052734375 445 c 0
 631.79980794 534.050171643 625.61470903 635.960166846 620.553222656 668 c 0
 611.26949096 726.767166921 595.346679688 777.912109375 580.552734375 818.5 c 0
 561.052734375 872 605.304598567 873.014170341 627.553222656 862 c 0
 678.053222656 837 719.053222656 813 757.553222656 789 c 0
 803.289325979 760.489182344 811.948922144 710.882471305 801.553222656 658 c 0
 778.553222656 541 735.553222656 451.5 674.553222656 352 c 0
 604.569028618 237.845453986 527.64738215 173.28324887 418.052734375 116 c 0
 309 59 212.342476342 24.6909286282 90.5 -21 c 0
 50.5 -36 24.0629706759 -24.5703131868 24 22 c 0
 23.947265625 61 26.947265625 98.5 35.5 136 c 0
 43.2900390625 170.155273438 60.501789563 191.76692642 94.5532226562 200 c 0
 169 218 224.98807768 225.020193295 294.553222656 240 c 0
 373.5 257 377.683934499 331.339459327 351.553222656 387 c 0
 290.053222656 518 204.37100781 651.087640841 116.552734375 764 c 0
 99.0532226562 786.5 107.053222656 808 139.553222656 811 c 0
EndSplineSet
EndChar

StartChar: afii57673
Encoding: 12 1497 20
Width: 502
Flags: HW
HStem: 775.5 37<65.9095 112.213>
LayerCount: 2
Back
SplineSet
84.1201171875 812.5 m 0
 188.977539062 806.674804688 279.120117188 811.5 376.120117188 782.5 c 0
 463.075195312 756.502929688 480.120117188 698.5 432.120117188 644.5 c 0
 344.845703125 546.315429688 268.120117188 479.5 141.120117188 413.5 c 4
 84.6572265625 384.157226562 75.1201171875 409.5 107.120117188 450.5 c 4
 156.341796875 513.565429688 209.516601562 585.559570312 207.120117188 633.5 c 0
 204.120117188 693.5 137.120117188 749.5 79.1201171875 775.5 c 0
 32.1455078125 796.557617188 48.1201171875 814.5 84.1201171875 812.5 c 0
EndSplineSet
Fore
SplineSet
84.1201171875 812.5 m 0
 193.27734375 812.1484375 287.120117188 806 376.120117188 782.5 c 0
 463.870117188 759.330078125 465.59765625 708.525390625 432.120117188 644.5 c 0
 392.120117188 568 337.120117188 502 264.120117188 439 c 0
 215.947265625 397.42578125 186.883789062 426.703125 200.120117188 477 c 0
 215.120117188 534 230.517578125 599.059570312 228.120117188 647 c 0
 225.120117188 707 137.120117188 749.5 79.1201171875 775.5 c 0
 32.1455078125 796.557617188 48.064453125 812.616210938 84.1201171875 812.5 c 0
EndSplineSet
EndChar

StartChar: afii57664
Encoding: 3 1488 21
Width: 954
Flags: HW
VStem: 703.949 49<324.214 389.935>
LayerCount: 2
Back
SplineSet
59.984375 806 m 24
 86.3359375 822.740234375 114.06011516 808.056860066 137.984558105 788 c 0
 275.362365723 672.830444336 427.683951311 548.46528746 558.5 396.5 c 0
 595.515625 353.5 625.558498195 369.74238536 635 422 c 0
 656.5 541 645.5 650 618.5 770.5 c 0
 601.923689394 844.479460297 640 864 694.984558105 838 c 0
 755.487696397 809.390483987 813.816048249 757.303121768 862.5 712 c 0
 898.5 678.5 903.819335938 649.268554688 879 613.5 c 0
 828 540 763.5 468 716 383 c 0
 689.120226151 334.89935206 680.5 285.5 725 242 c 0
 765.218980364 202.684816947 822.75390625 165.701171875 861.5 134 c 0
 894.5 107 883.83927308 91.3458398782 865 75 c 0
 831 45.5 790.650390625 27.83203125 742 9 c 0
 711 -3 687.88743279 2.51153864544 668 31.5 c 0
 609 117.5 567.699708137 207.621868711 518 288 c 0
 472.862365723 361 405.862365723 359 346 290 c 0
 297.668150238 234.29058068 241.862365723 142 188 55 c 0
 166.401373702 20.113294548 132.953967935 -18.4802421589 103 -7 c 0
 63.8623657227 8 87.1847035388 92.382613329 102 153 c 0
 129.862365723 267 183.091069841 368.456836145 173.862365723 475 c 0
 166.896358561 555.420873054 124.160519343 640.347036971 64 741 c 0
 50.9696252694 762.800773004 38.5458984375 792.380859375 59.984375 806 c 24
EndSplineSet
Fore
SplineSet
73.54296875 811.452148438 m 0
 100.600585938 827.02734375 127.657144701 811.148348084 150.684570312 790.06640625 c 0
 282.907226562 669.014648437 435.299743523 506.847608079 559.36328125 349.321289062 c 0
 594.46875 304.747070312 615.802754015 322.728507121 636.903320312 371.459960938 c 0
 689.223632812 492.29296875 652.947074397 641.888570718 588.880859375 763 c 0
 551.365234375 833.919921875 588.233302772 844.097402312 663.549804688 815.723632812 c 0
 712.8125 797.165039062 754.737205973 773.078983717 793.5078125 740.602539062 c 0
 865.494140625 680.302734375 878.608048784 596.814721686 823.797851562 525.454101562 c 0
 778.779296875 466.841796875 747.368396394 419.966653398 710.483398438 360.239257812 c 0
 681.53125 313.357421875 670.765015508 264.38120349 713.325195312 218.981445312 c 0
 751.791015625 177.94921875 807.65756341 138.491587823 844.984375 105.129882812 c 0
 876.774414062 76.716796875 865.597077918 61.3438682917 845.907226562 46.033203125 c 0
 815 22 776 2 720.145507812 -14.5380859375 c 0
 688.271513112 -23.9757308409 666.637296844 -18.1218421202 647.197265625 11.16796875 c 0
 585.791565534 103.686407724 500.997931479 276.435612542 452 364 c 0
 420.422851562 420.431640625 380.182327518 429.955886647 337.4140625 376.009765625 c 0
 288.012072777 313.696138566 184.488631137 93.3089236054 140 28 c 0
 123.830078125 4.2626953125 99.2614964322 -21.7065667512 78.6640625 -12.763671875 c 0
 51.751953125 -1.0791015625 69.5347379421 57.5577112445 82.849609375 99.1611328125 c 0
 110.605018685 185.885214237 177.903226323 358.298094835 172.875 475.799804688 c 0
 169.423828125 556.448242188 130.430006912 643.155817188 74.7197265625 746.338867188 c 0
 62.6533203125 768.6875 51.5311301427 798.781458217 73.54296875 811.452148438 c 0
EndSplineSet
EndChar

StartChar: afii57687
Encoding: 26 1511 22
Width: 887
Flags: HW
LayerCount: 2
Fore
SplineSet
204.442382812 454 m 0
 221.942382812 453 221.327148438 425.712890625 220.442382812 406 c 0
 206.442382812 94 211.442382812 -91 294.442382812 -387 c 0
 303.498046875 -419.295898438 307.127929688 -465.041015625 292.776367188 -471.333007812 c 0
 268.442382812 -481.999023438 247.053710938 -449.008789062 228.442382812 -423 c 0
 189.442382812 -368.5 159.336914062 -320.319335938 121.442382812 -251 c 0
 80.4423828125 -176 83.7734375 -124.711914062 94.4423828125 -44 c 0
 117.442382812 130 143.442382812 261 179.942382812 412 c 0
 184.696289062 431.668945312 188.4609375 454.913085938 204.442382812 454 c 0
85.4423828125 795 m 0
 135.442382812 749.5 179.635742188 749.599609375 238.442382812 758 c 0
 325.942382812 770.5 365.986328125 786.204101562 448.942382812 806 c 0
 536.942382812 827 613.490234375 820.580078125 677.442382812 782 c 0
 769.442382812 726.5 814.361328125 630.826171875 834.442382812 510 c 0
 863.942382812 332.5 701.80078125 74.9541015625 465.442382812 39.5 c 0
 395.442382812 29 397.442382812 55.5 431.442382812 88 c 0
 580.698242188 230.670898438 666.442382812 389 726.442382812 596 c 0
 738.252929688 636.74609375 744.071289062 673.176757812 712.942382812 702 c 0
 685.942382812 727 645.540039062 726.602539062 603.942382812 713 c 0
 498.442382812 678.5 429.477539062 640.26171875 319.442382812 592 c 0
 262.442382812 567 230.096679688 571.383789062 196.442382812 606 c 0
 143.942382812 660 110.268554688 706.434570312 62.4423828125 776 c 24
 53.814453125 788.549804688 44.9423828125 806.5 53.4423828125 814 c 0
 62.0732421875 821.616210938 74.70703125 804.768554688 85.4423828125 795 c 0
EndSplineSet
EndChar

StartChar: afii57670
Encoding: 9 1494 23
Width: 527
Flags: HW
VStem: 238.058 144<57.6818 230.711>
LayerCount: 2
Back
SplineSet
65.5576171875 800.5 m 0
 103.557617188 775 124.557617188 768.5 172.057617188 771 c 0
 249.391601562 775.0703125 315.057617188 781 382.057617188 787 c 0
 409.77734375 789.482421875 443.057617188 786 450.557617188 767 c 0
 456.225585938 752.642578125 442.169921875 739.63671875 427.557617188 733.5 c 0
 377.557617188 712.5 325.057617188 685.5 291.557617188 658.5 c 0
 256.026367188 629.862304688 247.447265625 596.544921875 271.557617188 533 c 0
 325.057617188 392 348.233398438 289.211914062 382.057617188 137 c 0
 391.057617188 96.5 380.467773438 78.3857421875 356.057617188 53 c 0
 331.057617188 27 299.057617188 6.5 266.057617188 -8 c 0
 245.958007812 -16.83203125 238.921875 -14.0263671875 238.057617188 14 c 0
 234.557617188 127.5 250.404296875 210.377929688 257.057617188 336 c 0
 261.797851562 425.49609375 246.057617188 512 191.057617188 595 c 0
 146.859375 661.700195312 111.206054688 717.520507812 51.0576171875 784 c 0
 32.0576171875 805 46.759765625 813.114257812 65.5576171875 800.5 c 0
139.057617188 652 m 0
 108.057617188 699 85.0400390625 737.696289062 47.0576171875 801 c 0
 29.658203125 830 61.2314453125 844.057617188 77.0576171875 831 c 0
 117.057617188 798 152.060546875 781.11328125 199.057617188 780 c 1024
EndSplineSet
Fore
SplineSet
94.0576171875 817 m 0
 131.6015625 790.833007812 150.557617188 778.5 198.057617188 781 c 0
 275.391601562 785.0703125 341.057617188 791 408.057617188 797 c 0
 435.776367188 799.482421875 469.057617188 796 476.557617188 777 c 0
 482.224609375 762.642578125 468.168945312 749.63671875 453.557617188 743.5 c 0
 403.557617188 722.5 338.557617188 692.5 305.057617188 665.5 c 0
 269.526367188 636.862304688 265.66015625 605.138671875 285.057617188 540 c 0
 325.557617188 404 359.057617188 289 382.057617188 137 c 0
 388.265625 95.9794921875 380.467773438 78.3857421875 356.057617188 53 c 0
 331.057617188 27 309.057617188 10.5 276.057617188 -4 c 0
 255.958007812 -12.83203125 239.921875 0.9736328125 239.057617188 29 c 0
 235.557617188 142.5 250.404296875 210.377929688 257.057617188 336 c 0
 261.797851562 425.49609375 246.057617188 512 191.057617188 595 c 0
 146.859375 661.700195312 109.057617188 716 56.0576171875 784 c 0
 38.6484375 806.336914062 61.0576171875 840 94.0576171875 817 c 0
EndSplineSet
EndChar

StartChar: afii57677
Encoding: 16 1501 24
Width: 827
Flags: HW
HStem: 726.5 61.5<405.633 528.928>
LayerCount: 2
Fore
SplineSet
186.611328125 133 m 0
 161.040039062 21.056640625 198.111328125 7.5 278.611328125 64 c 0
 325.548828125 96.9443359375 385.611328125 146 444.611328125 153 c 0
 534.749023438 163.694335938 594.611328125 123.5 669.611328125 78 c 0
 697.6328125 61 707.611328125 82.5 703.611328125 109 c 0
 674.086914062 304.595703125 644.111328125 429 588.611328125 603 c 0
 567.908203125 667.907226562 534.111328125 728 464.611328125 726.5 c 0
 409.068359375 725.30078125 383.864257812 689.294921875 362.611328125 640 c 0
 290.611328125 473 231.611328125 330 186.611328125 133 c 0
83.611328125 820 m 0
 173.611328125 772 298.611328125 759 405.611328125 779 c 0
 478.9140625 792.701171875 522.10546875 791.170898438 596.611328125 788 c 0
 690.611328125 784 766.111328125 742 770.611328125 589 c 0
 773.068359375 505.465820312 760.3828125 458.56640625 759.611328125 375 c 0
 758.611328125 266.666992188 755.35546875 167.485351562 775.611328125 50 c 0
 780.611328125 21 774.27734375 4.6669921875 746.611328125 7 c 0
 529.791992188 25.2861328125 382.610351562 1.0009765625 197.611328125 -46 c 0
 149.498046875 -58.2236328125 92.953125 -47.41796875 107.611328125 51 c 0
 128.611328125 192 174.684570312 297.138671875 192.111328125 449 c 0
 206.111328125 571 161.142578125 635.188476562 112.611328125 691 c 0
 82.611328125 725.5 65.111328125 759 51.611328125 791 c 0
 43.814453125 809.48046875 65.9140625 829.438476562 83.611328125 820 c 0
EndSplineSet
EndChar

StartChar: afii57679
Encoding: 18 1503 25
Width: 405
Flags: HW
VStem: 137.766 50.334<204.708 490.654>
LayerCount: 2
Fore
SplineSet
80.6611328125 839.456054688 m 0
 147.060546875 816.456054688 193.844726562 796.189453125 260.259765625 763.172851562 c 0
 324.259765625 731.35546875 353.405273438 677.35546875 344.860351562 602.172851562 c 0
 332.659179688 494.83984375 294.259765625 370.255859375 300.260742188 228.040039062 c 0
 308.979492188 21.4091796875 357.336914062 -112.811523438 404.060546875 -295.401367188 c 0
 409.260742188 -315.71875 399.77734375 -323.577148438 379.059570312 -323.577148438 c 0
 353.659179688 -323.577148438 318.859375 -319.360351562 297.661132812 -312.077148438 c 0
 252.465820312 -296.548828125 231.453125 -273.580078125 227.259765625 -227.743164062 c 0
 221.860351562 -168.709960938 223.260742188 -125.39453125 225.259765625 -62.9111328125 c 0
 230.743164062 108.434570312 238.459960938 243.948242188 239.860351562 389.998046875 c 0
 240.951171875 503.775390625 224.72265625 564.315429688 169.66015625 653.922851562 c 0
 137.860351562 705.672851562 106.66015625 752.823242188 61.861328125 807.639648438 c 0
 39.0673828125 835.53125 51.1904296875 849.6640625 80.6611328125 839.456054688 c 0
EndSplineSet
EndChar

StartChar: afii57685
Encoding: 24 1509 26
Width: 952
Flags: HW
LayerCount: 2
Back
SplineSet
430.505859375 810 m 24
 496.267578125 790.049804688 545.172851562 762 587.505859375 730 c 0
 635.518554688 693.70703125 641.172851562 635 597.505859375 576 c 0
 533.5234375 489.55078125 471.172851562 439 402.505859375 381 c 0
 378.556640625 360.771484375 369.172851562 371 383.505859375 396 c 0
 427.801757812 473.260742188 456.099609375 518.083007812 475.505859375 605 c 24
 484.939453125 647.250976562 477.172851562 681 454.505859375 714 c 0
 436.130859375 740.751953125 424.498046875 755.215820312 409.505859375 784 c 0
 401.172851562 800 418.033203125 813.784179688 430.505859375 810 c 24
84.1728515625 812 m 0
 140.284179688 788.62109375 183.172851562 770 230.504882812 740 c 0
 282.411132812 707.1015625 299.173828125 680.000976562 297.840820312 638.000976562 c 0
 296.581054688 598.306640625 291.172851562 572 283.505859375 540 c 0
 274.055664062 500.5546875 277.172851562 468.666992188 284.505859375 436 c 0
 311.049804688 317.76171875 340.485351562 254.874023438 372.505859375 138 c 24
 402.8984375 27.0673828125 422.9375 -35.0205078125 444.505859375 -148 c 24
 447.790039062 -165.204101562 452.544921875 -187.943359375 435.505859375 -192 c 24
 417.529296875 -196.280273438 407.251953125 -175.858398438 402.505859375 -158 c 0
 363.172851562 -10 332.172851562 104 281.505859375 260 c 0
 237.084960938 396.770507812 198.172851562 504 157.172851562 593 c 0
 111.260742188 692.6640625 77.2451171875 740.053710938 56.1728515625 776 c 0
 39.1728515625 805 60.1728515625 822 84.1728515625 812 c 0
EndSplineSet
Fore
SplineSet
77.7998046875 808.200195312 m 0
 148.162109375 802.352539062 198.842773438 794.142578125 271.944335938 778.20703125 c 0
 342.389648438 762.850585938 385.227539062 716.056640625 397.44140625 638.092773438 c 0
 414.87890625 526.788085938 425.81640625 361.950195312 470.3203125 220.254882812 c 0
 534.983398438 14.3798828125 618.208007812 -108.208984375 713.01171875 -279.955078125 c 0
 723.560546875 -299.06640625 716.545898438 -309.455078125 696.544921875 -314.859375 c 0
 672.025390625 -321.485351562 637.28125 -326.317382812 614.834960938 -324.509765625 c 0
 566.978515625 -320.65625 540.438476562 -303.001953125 523.9140625 -257.921875 c 0
 502.6328125 -199.86328125 492.192382812 -155.86328125 477.115234375 -92.400390625 c 0
 435.767578125 81.634765625 406.328125 220.157226562 367.92578125 367.646484375 c 0
 338.008789062 482.543945312 291.76953125 568.6171875 214.221679688 644.51953125 c 0
 169.435546875 688.354492188 126.481445312 727.713867188 68.3125 771.24609375 c 0
 38.7158203125 793.395507812 46.5703125 810.795898438 77.7998046875 808.200195312 c 0
580.150390625 816.193359375 m 4
 676.556640625 793.866210938 749.526367188 758.27734375 813.431640625 716.381835938 c 4
 885.913085938 668.864257812 896.365234375 587.110351562 842.641601562 496.083007812 c 4
 763.384765625 361.795898438 687.290039062 277.495117188 594.266601562 188.5078125 c 4
 547.069335938 143.357421875 518.827148438 166.649414062 552.51953125 216.83984375 c 4
 627.873046875 329.09375 686.533203125 408.776367188 704.528320312 517.024414062 c 4
 714.751953125 578.518554688 707.044921875 633.42578125 663.850585938 671.607421875 c 4
 618.573242188 711.631835938 585.0234375 738.72265625 552.483398438 776.8125 c 4
 535.609375 796.564453125 561.86328125 820.427734375 580.150390625 816.193359375 c 4
EndSplineSet
EndChar

StartChar: uni05D4
Encoding: 7 1492 27
Width: 847
Flags: HW
HStem: 738 82<104.031 177.126>
VStem: 95.5787 51<344.198 395.716> 644.579 58<27.1081 217.418>
LayerCount: 2
Fore
SplineSet
108.579101562 394 m 0
 124.579101562 401 138.231445312 391.428710938 146.579101562 378 c 0
 192.579101562 304 223.848632812 243.654296875 260.579101562 167 c 0
 283.579101562 119 269.954101562 86.0107421875 238.579101562 56 c 0
 215.579101562 34 174.579101562 5 130.579101562 -15 c 0
 106.06640625 -26.1416015625 81.5234375 -35.953125 60.5791015625 -18 c 0
 46.5791015625 -6 47.05859375 27.6103515625 58.5791015625 50 c 0
 111.579101562 153 120.579101562 222 95.5791015625 350 c 0
 92.0810546875 367.91015625 91.7607421875 386.641601562 108.579101562 394 c 0
90.5791015625 800 m 0
 99.5791015625 826 139.897460938 824.993164062 172.579101562 820 c 0
 244.579101562 809 319.006835938 788.708984375 390.579101562 776 c 0
 497.579101562 757 630.579101562 750 710.579101562 750 c 0
 774.579101562 750 809.8671875 720.190429688 793.579101562 658 c 0
 782.579101562 616 762.579101562 570 745.579101562 518 c 0
 728.579101562 466 718.534179688 408.908203125 712.579101562 352 c 0
 703.579101562 266 710.579101562 172 702.579101562 77 c 0
 700.6328125 53.88671875 696.55859375 22.091796875 676.579101562 23 c 0
 654.579101562 24 648.825195312 61.4521484375 644.579101562 90 c 0
 626.579101562 211 603.579101562 328 581.579101562 409 c 0
 559.184570312 491.453125 532.4921875 548.009765625 456.579101562 588 c 0
 344.579101562 647 250.579101562 682 134.579101562 738 c 0
 108.775390625 750.45703125 81.6806640625 774.293945312 90.5791015625 800 c 0
EndSplineSet
EndChar

StartChar: uni05E3
Encoding: 22 1507 28
Width: 687
Flags: HW
VStem: 130.995 42<544.787 672.169> 577.995 57<74.4631 516.484>
LayerCount: 2
Fore
SplineSet
109.768554688 800 m 0
 173.768554688 767 209.268554688 775 266.26953125 783.5 c 0
 326.198242188 792.436523438 372.080078125 807.010742188 425.26953125 811 c 0
 485.268554688 815.5 555.768554688 797 589.76953125 743 c 0
 611.203125 708.958007812 619.859375 668.002929688 618.76953125 631.5 c 0
 614.76953125 497.5 598.258789062 431.513671875 591.768554688 285 c 0
 588.110351562 202.397460938 581.041015625 154.698242188 593.768554688 73 c 24
 614.795898438 -61.958984375 638.466796875 -145.438476562 677.768554688 -267 c 0
 709.77734375 -366 652.77734375 -383.5 595.768554688 -343 c 0
 553.857421875 -313.224609375 523.27734375 -297 488.768554688 -266 c 0
 451.885742188 -232.866210938 437.887695312 -193.13671875 449.768554688 -145 c 0
 478.27734375 -29.5 503.135742188 82.3564453125 501.768554688 230 c 0
 500.376953125 380.354492188 478.365234375 490.315429688 442.768554688 611 c 0
 424.77734375 672 341.27734375 731.5 271.27734375 727 c 0
 218.107421875 723.58203125 179.27734375 712.5 142.768554688 687 c 0
 109.534179688 663.786132812 92.7841796875 628 131.27734375 583.5 c 0
 187.861328125 518.084960938 253.530273438 492.247070312 310.27734375 435.5 c 0
 330.27734375 415.5 330.025390625 399.185546875 302.768554688 389 c 0
 257.27734375 372 200.251953125 365.912109375 144.77734375 382 c 0
 94.77734375 396.5 59.07421875 446.981445312 57.7685546875 504 c 0
 55.77734375 591 61.4072265625 662.708007812 50.77734375 760.5 c 0
 45.77734375 806.5 64.8515625 823.16015625 109.768554688 800 c 0
EndSplineSet
EndChar

StartChar: afii57671
Encoding: 10 1495 29
Width: 914
Flags: HW
LayerCount: 2
Fore
SplineSet
56.2772216797 819 m 0
 82.2772216797 812.5 116.867239093 791.200594312 157.27722168 778 c 0
 232.27722168 753.5 289.75 755.208984375 365.27734375 765 c 0
 446.27734375 775.5 525.27722168 807 611.77734375 817 c 0
 726.117677774 830.218517071 824.228842549 823.818481727 852.5 665.5 c 0
 872.5 553.5 866.5 383.5 845.5 232.5 c 0
 833.455780177 145.896324133 825.457635211 86.3747938175 805 12.5 c 0
 796 -20 771.03515625 -21.0673828125 758.5 14 c 0
 719 124.5 711.5 218.5 702.27722168 343 c 0
 694.094219893 453.463863179 675 538 631.27722168 618 c 0
 599.288788144 676.52955327 559.318964862 726.041491364 497.5 718 c 0
 436 710 388.062889008 656.658470203 361.5 586.5 c 0
 296 413.5 287.5 221.5 225.27722168 17 c 0
 206.05862718 -46.1634054486 155.964249872 -44.870806292 153.27722168 26 c 0
 148.5 152 152 257 149.27722168 383 c 0
 146.463074085 513.22822836 137 635 81.2772216797 710 c 0
 60.7758808413 737.593752667 36 763.5 23.2772216797 788 c 0
 5.75084156297 821.750199999 21.2176085816 827.764903275 56.2772216797 819 c 0
EndSplineSet
EndChar

StartChar: afii57680
Encoding: 19 1504 30
Width: 527
Flags: HW
HStem: -24 176<107.342 233.043>
LayerCount: 2
Fore
SplineSet
76.07421875 814 m 4
 174.80859375 823.403320312 280.07421875 814 376.07421875 800 c 4
 426.23828125 792.684570312 465.40234375 761.115234375 469.07421875 711 c 4
 486.07421875 479 477.07421875 322 455.07421875 75 c 28
 452.07421875 45 443.07421875 18 408.07421875 13 c 4
 299.405273438 -2.5244140625 217.029296875 -19.529296875 94.07421875 -24 c 4
 39.07421875 -26 47.904296875 -2.5927734375 56.07421875 19 c 4
 70.07421875 56 86.07421875 84 104.07421875 124 c 4
 113.185546875 144.248046875 130.178710938 154.08984375 151.07421875 152 c 4
 191.07421875 148 216.981445312 138.037109375 254.07421875 123 c 4
 291.07421875 108 322.567382812 104.677734375 364.07421875 102 c 4
 395.07421875 100 404.07421875 111 401.07421875 142 c 4
 388.266601562 274.34765625 375.009765625 353.799804688 366.07421875 484 c 4
 359.07421875 586 334.07421875 650 249.07421875 700 c 4
 186.532226562 736.7890625 136.07421875 748 72.07421875 786 c 4
 53.47265625 797.044921875 55.07421875 812 76.07421875 814 c 4
EndSplineSet
EndChar

StartChar: one
Encoding: 1 49 31
Width: 354
Flags: W
VStem: 202 72<7.78854 308.569>
LayerCount: 2
Fore
SplineSet
244 809 m 0
 279.880173346 829.214182167 303.850389189 817.007783774 302 780 c 0
 301 760 296.599110995 743.812922754 288 720 c 0
 275 684 276.820994635 648.851935619 273 603 c 0
 261 459 264 273 274 76 c 0
 275.115322425 54.0281482339 270 37 261 23 c 0
 253.468118304 11.2837395845 250.556640625 0.158203125 240 -8 c 0
 218 -25 202 -14 202 10 c 0
 202 135.015998976 205 218 198 346 c 0
 195.1473967 398.161888908 185.057999282 432.372308797 158 474 c 0
 132 514 108.739188593 543.3577969 71 584 c 0
 45 612 44.632152093 641.298567432 65 666 c 0
 112 723 173 769 244 809 c 0
EndSplineSet
Validated: 3105
EndChar

StartChar: afii57674
Encoding: 13 1498 32
Width: 779
Flags: HW
LayerCount: 2
Fore
SplineSet
75.583984375 802 m 0
 101.729492188 791.541992188 121.096679688 780.916992188 144.583984375 771 c 0
 189.583984375 752 210.584960938 750.06640625 250.583984375 749 c 0
 325.583984375 747 398.583984375 756 473.583984375 764 c 0
 595.583984375 777.012695312 670.590820312 728.87109375 679.583984375 555 c 0
 688.583984375 381 694.135742188 184.291992188 725.583984375 -61 c 0
 730.798828125 -101.6796875 734.77734375 -137.434570312 702.583984375 -163 c 0
 668.583984375 -190 645.583984375 -207 599.583984375 -226 c 0
 564.791992188 -240.37109375 543.321289062 -218.791992188 549.583984375 -180 c 0
 585.583984375 43 600.583984375 312 615.583984375 530 c 0
 619.1953125 582.487304688 608.583984375 615.099609375 587.583984375 634 c 0
 562.583984375 656.5 525.676757812 658.537109375 473.583984375 644 c 0
 430.583984375 632 401.021484375 616.254882812 353.583984375 603 c 0
 285.583984375 584 217.583984375 600 167.583984375 642 c 0
 122.615234375 679.7734375 95.583984375 721 57.583984375 780 c 0
 42.529296875 803.374023438 50.583984375 812 75.583984375 802 c 0
EndSplineSet
EndChar

StartChar: NameMe.33
Encoding: 35 -1 33
Width: 864
Flags: HW
LayerCount: 2
Fore
SplineSet
119 130 m 0
 140.200683594 172.5 175.700683594 192.5 236.701171875 170 c 0
 347.59049637 129.098527382 419.045582785 89.0193268675 516 58 c 0
 583.200683594 36.5 624.200683594 44.5 672 72 c 0
 705.336747398 91.179365363 733.986870391 107.654152971 757 122 c 0
 795.5 146 815.436555306 115.779563047 801 90 c 0
 787 65 773 42.5 754 15 c 0
 733.965296387 -13.9975973341 699.057787044 -23.4571660016 658.5 -22 c 0
 575 -19 498.957090537 -12.7722294607 408 4 c 0
 337.5 17 287.5 24 220 12 c 0
 167.435801008 2.65525351258 134.708984375 -10.2490234375 85.201171875 -18.5 c 0
 58.2001953125 -23 54.7006835938 -13.5 66 14 c 0
 83.5711078878 56.7641327619 103.444211661 98.816052488 119 130 c 0
168 799 m 0
 228.5 765 261 763.5 319 774.5 c 0
 346.888155162 779.789132876 385.681640625 791.358398438 413.5 797 c 0
 485 811.5 534.5 812.5 599 788 c 0
 667.622730008 761.93400178 703.39440599 714.461429797 727 650 c 0
 740 614.5 742.029005111 569.246543443 736 518 c 0
 726 433 708.296291378 353.938984495 685 260 c 0
 673.165764758 212.280128075 659.294921875 184.623046875 624.5 156 c 0
 591.970703125 129.240234375 569.256572532 111.566333977 534 91 c 0
 510 77 497.5 88.5 505 116 c 0
 531.707831665 213.928716104 557.500169221 272.99993963 590.5 365.5 c 0
 627.940429688 470.447265625 652.000271737 538.999980491 659 636.5 c 0
 661.438476562 670.465820312 652.59604748 702.128924865 632.5 717 c 0
 607.5 735.5 572.490159022 734.552602718 541 723 c 0
 456.5 692 388.698949838 659.587825755 313 623 c 0
 283 608.5 266.5 611 245 632 c 0
 197.69718701 678.202747572 163.5 718.5 129 769.5 c 0
 120.685083497 781.7916157 113.699418864 801.696615573 126 810 c 0
 140.034179688 819.473632812 153.239190111 807.295331177 168 799 c 0
EndSplineSet
EndChar

StartChar: NameMe.34
Encoding: 36 -1 34
Width: 850
Flags: HW
LayerCount: 2
Fore
SplineSet
809 783 m 1024
126 -17 m 0
 96 -19 68.9474970985 -29.0499969458 48 -7 c 0
 29 13 36.126953125 39.9267578125 50 64 c 0
 84 123 125.930640953 161.78213011 163 196 c 0
 202 232 237.524324992 235.779175686 281 222 c 0
 464 164 583 120 758 36 c 0
 814.444271514 8.90674967332 807.944228388 -13.6284368703 755 -11 c 0
 614 -4 475 8 348 19 c 0
 273.2734375 25.47265625 244.999735274 18.5516460068 204 6 c 0
 180.873046875 -1.080078125 149.967621965 -15.4021585357 126 -17 c 0
57 727 m 0
 54.3237783795 743.057329723 71.7484958524 751.890424239 88 756 c 0
 175 778 243.731719999 795.434915955 347 814 c 0
 436 830 515.33539933 825.129015555 598 788 c 0
 716 735 788.008843392 612.234116946 773 476 c 0
 768.050505469 431.073818876 750.736847774 383.02488309 737 337 c 0
 714.656593527 262.1391085 690.059029195 186.913527629 643 104 c 0
 622 67 577.167952663 60.997041457 578 113 c 0
 580 238 579.943677718 345.603532876 554 492 c 0
 540 571 496 625 437 661 c 0
 360.524210576 707.663193547 285 724 186 720 c 0
 150.673484212 718.572666029 130.035580275 715.365253649 100 714 c 0
 78 713 59 715 57 727 c 0
EndSplineSet
EndChar

StartChar: NameMe.35
Encoding: 37 -1 35
Width: 1000
Flags: W
HStem: -7 34<164.647 210.101>
VStem: 333 38<761.317 808.944> 597 27<434.688 496.139>
LayerCount: 2
Fore
SplineSet
555 153 m 0
 593.827550042 181.381330914 598.464977863 187.993595655 611 169 c 0
 616.730902753 160.316293785 590.984539651 133.984539651 573 116 c 0
 549 92 522.312646922 74.6179662846 488.5 49.5 c 0
 453.5 23.5 420.522049352 17.7959232007 369 9.5 c 0
 310 0 248.5 -4 178 -7 c 0
 156.519439425 -7.91406640743 145.5 15.5 177.5 27 c 0
 205.073242188 36.9091796875 226 52.5 243 79 c 0
 254.781413795 97.365145034 258.972338101 109.172284563 270 128 c 0
 290.5 163 322.203039118 169.683832927 354 150 c 0
 385.5 130.5 416 116 444.5 117 c 0
 488.514648438 118.543945312 525.665892303 131.557982239 555 153 c 0
371 793 m 0
 379.067259673 765.730413279 397.076702082 749.385208629 425 744 c 0
 471.666656494 735 529.666687012 723.5 568 711 c 0
 605.742011938 698.692815662 623.635230273 669.498789956 624 626 c 0
 626 387.5 662 244 789 42 c 0
 799.594850144 25.1483485891 818.46875 4.3837890625 802.5 -7.5 c 24
 787.217773438 -18.873046875 762.629654906 0.706957552585 746 10 c 0
 729 19.5 700 32 668 32 c 0
 623.93374678 32 597.00201488 60.595648228 590 105 c 0
 583.406803533 146.811767072 578.898623754 200.555899357 586 261 c 0
 593.166687012 322 598.398099596 376.178539068 597 450 c 0
 596.166687012 494 574.746750117 512.048148939 541 529 c 0
 505.166656494 547 469.166656494 565 429 582 c 0
 387.779657798 599.445958379 365.666656494 628 353 668 c 0
 338.095639403 715.066439685 338.066847754 743.890667822 333 793 c 0
 328.666656494 835 359.166656494 833 371 793 c 0
EndSplineSet
EndChar

StartChar: NameMe.36
Encoding: 38 -1 36
Width: 847
Flags: W
VStem: 555.349 39.4844<455.791 576.185>
LayerCount: 2
Fore
SplineSet
578.833007812 576.5 m 0
 592.833312988 576 593.587923628 556.833702113 594.833007812 541.5 c 0
 604.333312988 424.5 620.233088699 348.256170513 680.349121094 254 c 0
 713.833312988 201.5 713.333312988 183.5 679.349121094 137 c 0
 636.065683915 77.7759985861 606.626821022 51.5319852923 550.333007812 4.5 c 0
 540.978515625 -3.3154296875 528.050405546 -7.36182406941 518.333007812 0 c 0
 509.296875 6.845703125 511.7734375 21.62109375 516.333007812 32 c 0
 541.817382812 90 550.624750175 134.491098181 540.349121094 202 c 0
 520.333312988 333.5 522.832188277 423.500222996 555.348632812 543 c 0
 559.655273438 558.827148438 562.441087532 577.085412963 578.833007812 576.5 c 0
27.3505859375 804 m 0
 36.6824544271 814.333333333 52.5749408132 802.465530619 63.3486328125 793.000976562 c 0
 99.015625 761.66796875 119.987569501 738.777397747 166.349121094 729 c 0
 270.666666667 707 333 698.333333333 436.333007812 688.333984375 c 0
 496.602422395 682.501821732 543.675690188 683.879352027 603.001953125 695.998046875 c 0
 672.723632812 710.240234375 704.515608084 732.331009521 773 751.666992188 c 0
 801.333333333 759.666666667 810.333333333 752.666666667 805.33203125 734.33203125 c 0
 795.607438487 698.681942551 779.666666667 649.666666667 765 619 c 0
 753.687029179 595.345606465 738.666666667 586.333333333 704.349121094 593 c 0
 665.057037937 600.63304067 638 608.333333333 599.001953125 615.000976562 c 0
 558.236903043 621.970730998 526.535181159 623.244830353 485.333007812 619.666992188 c 0
 386.918945312 611.12109375 337.666666667 603.666666667 240.682617188 586.000976562 c 0
 191.736018674 577.085330684 168.551263095 585.231106486 152.68359375 612.999023438 c 0
 120.682454427 669 92.3956675713 706.674443855 55.013671875 743.66796875 c 0
 23.0157877604 775.333333333 17.6470695516 793.255134764 27.3505859375 804 c 0
EndSplineSet
EndChar

StartChar: NameMe.37
Encoding: 39 -1 37
Width: 546
Flags: W
VStem: 165 37<-17.8 137.19>
LayerCount: 2
Fore
SplineSet
70 827.5 m 0
 84.5146484375 827.5 88.4806547946 810.872217868 97.5 799.5 c 0
 109 785 128.884747036 774.353248123 149 764 c 0
 182.291015625 746.865234375 205.236966957 746.124231045 238 728 c 0
 285 702 306 640.5 299.5 560 c 0
 289.721712123 438.899665525 248.411318965 350.486778729 231 217 c 0
 222 148 214 93 202 12.5 c 0
 200.850026505 4.78559446944 194 -19 181 -18 c 0
 166.035256756 -16.8488659043 165.576807104 2.00196736786 165 17 c 0
 161.237304688 114.836914063 167.825278401 171.091201444 167.5 269 c 0
 167 419.5 152.220717477 527.156806878 87 598 c 0
 58 629.5 45.5 658 42.5 701 c 0
 40.342439547 731.925033159 45.5 765 50 798 c 0
 51.4536318153 808.659966646 59.2412109375 827.5 70 827.5 c 0
EndSplineSet
EndChar

StartChar: NameMe.40
Encoding: 40 -1 39
Width: 1030
Flags: HW
LayerCount: 2
Fore
SplineSet
844.11328125 761.5 m 4
 863.974609375 769.034179688 876.833984375 743.31640625 881.063476562 722.5 c 4
 890.61328125 675.5 904.287109375 629.263671875 932.563476562 575.5 c 4
 974.11328125 496.5 983.672851562 424.930664062 979.563476562 326 c 4
 977.11328125 267 940.61328125 150 906.563476562 98.5 c 4
 791.69140625 -75.244140625 662.366210938 -174.262695312 457.063476562 -175.5 c 4
 374.11328125 -176 315.11328125 -166 233.61328125 -133.5 c 4
 208.2421875 -123.3828125 188.61328125 -111.5 176.11328125 -95.5 c 4
 153.228515625 -66.2080078125 168.09765625 -13.7880859375 191.063476562 18.5 c 4
 213.418945312 49.9306640625 245.638671875 74.755859375 281.063476562 59.5 c 4
 339.11328125 34.5 395.420898438 15.779296875 472.063476562 12.5 c 28
 571.245117188 8.255859375 649.930664062 19.1328125 725.063476562 40.5 c 4
 790.11328125 59 832.11328125 84.5 868.61328125 140 c 4
 896.69921875 182.706054688 887.115234375 233.081054688 874.063476562 282.5 c 4
 858.61328125 341 823.11328125 395.5 782.063476562 446.5 c 4
 758.279296875 476.048828125 754.4453125 506.458007812 776.11328125 538.5 c 4
 803.1640625 578.5 828.11328125 642 836.063476562 715 c 4
 837.91796875 732.032226562 829.61328125 756 844.11328125 761.5 c 4
485.228515625 773.002929688 m 4
 501.3828125 780.578125 518.11328125 746 521.23046875 722 c 4
 526.845703125 678.764648438 543.99609375 646 567.61328125 618 c 4
 601.109375 578.287109375 650.11328125 521.5 635.61328125 442 c 4
 625.79296875 388.159179688 613.11328125 332 583.23046875 273 c 4
 561.637695312 230.3671875 538.264648438 205.333007812 511.264648438 175.666015625 c 4
 500.346679688 163.668945312 483.931640625 148.333007812 473.23046875 156 c 4
 462.432617188 163.736328125 471.091796875 181.169921875 475.59765625 193.665039062 c 4
 515.631835938 304.665039062 498.797851562 386.999023438 452.764648438 436 c 4
 434.009765625 455.963867188 419.915039062 468.1328125 418.764648438 495.5 c 4
 417.724609375 520.245117188 434.7734375 538.20703125 448.23046875 559 c 4
 474.764648438 600 484.798828125 645.5 482.764648438 697.5 c 4
 481.665039062 725.6015625 461.764648438 762 485.228515625 773.002929688 c 4
124.23046875 729 m 4
 143.704101562 734.03125 151.319335938 705.619140625 157.23046875 685 c 4
 167.264648438 650 182.751953125 615.986328125 211.23046875 590 c 4
 268.764648438 537.5 309.764648438 471 317.23046875 379 c 4
 323.552734375 301.094726562 298.4375 255.78125 263.23046875 186 c 28
 231.896484375 123.895507812 177.1640625 26.0224609375 150.23046875 48 c 4
 142.264648438 54.5 147.279296875 66.76953125 153.23046875 76 c 4
 176.764648438 112.5 186.874023438 152.76953125 190.23046875 205 c 4
 193.764648438 260 174.764648438 300 145.23046875 337 c 4
 117.467773438 371.780273438 88.7646484375 396 67.7646484375 423.5 c 4
 45.0625 453.229492188 44 484.155273438 65.2646484375 516 c 4
 86.298828125 547.5 100.725585938 576.116210938 112.23046875 616 c 4
 124.513671875 658.58203125 93.2646484375 721 124.23046875 729 c 4
EndSplineSet
EndChar

StartChar: NameMe.40.1
Encoding: 41 -1 40
Width: 677
Flags: HW
LayerCount: 2
Fore
SplineSet
430.505859375 810 m 24
 496.267578125 790.049804688 545.172851562 762 587.505859375 730 c 0
 635.518554688 693.70703125 641.172851562 635 597.505859375 576 c 0
 533.5234375 489.55078125 471.172851562 439 402.505859375 381 c 0
 378.556640625 360.771484375 369.172851562 371 383.505859375 396 c 0
 427.801757812 473.260742188 456.099609375 518.083007812 475.505859375 605 c 24
 484.939453125 647.250976562 477.172851562 681 454.505859375 714 c 0
 436.130859375 740.751953125 424.498046875 755.215820312 409.505859375 784 c 0
 401.172851562 800 418.033203125 813.784179688 430.505859375 810 c 24
84.1728515625 812 m 0
 140.284179688 788.62109375 183.172851562 770 230.504882812 740 c 0
 282.411132812 707.1015625 299.173828125 680.000976562 297.840820312 638.000976562 c 0
 296.581054688 598.306640625 291.172851562 572 283.505859375 540 c 0
 274.055664062 500.5546875 277.172851562 468.666992188 284.505859375 436 c 0
 311.049804688 317.76171875 340.485351562 254.874023438 372.505859375 138 c 24
 402.8984375 27.0673828125 422.9375 -35.0205078125 444.505859375 -148 c 24
 447.790039062 -165.204101562 452.544921875 -187.943359375 435.505859375 -192 c 24
 417.529296875 -196.280273438 407.251953125 -175.858398438 402.505859375 -158 c 0
 363.172851562 -10 332.172851562 104 281.505859375 260 c 0
 237.084960938 396.770507812 198.172851562 504 157.172851562 593 c 0
 111.260742188 692.6640625 77.2451171875 740.053710938 56.1728515625 776 c 0
 39.1728515625 805 60.1728515625 822 84.1728515625 812 c 0
EndSplineSet
EndChar

StartChar: NameMe.41
Encoding: 42 -1 41
Width: 791
Flags: HW
LayerCount: 2
Fore
SplineSet
627.37890625 832 m 4
 638.87890625 851.5 650.37890625 848.5 652.87890625 829 c 4
 658.999023438 781.263671875 681.87890625 738 718.87890625 696 c 4
 741.763671875 670.022460938 746.737304688 643.026367188 734.87890625 610.5 c 4
 717.37890625 562.5 698.268554688 521.48046875 674.87890625 483 c 4
 652.071289062 445.477539062 625.026367188 409.356445312 587.87890625 376 c 4
 563.37890625 354 549.37890625 372 563.37890625 395.5 c 4
 581.14453125 425.321289062 612.421875 478.291015625 612.87890625 513 c 4
 613.37890625 551 591.19921875 572.959960938 574.87890625 584 c 4
 540.87890625 607 534.87890625 624 545.87890625 657.5 c 4
 565.461914062 717.138671875 590.143554688 768.861328125 627.37890625 832 c 4
220.212890625 772.665039062 m 4
 233.022460938 797.431640625 252.545898438 787.666992188 257.544921875 764.666015625 c 4
 277.637695312 672.223632812 309.071289062 618.588867188 364.87890625 538 c 4
 421.896484375 455.6640625 477.87890625 408.5 540.87890625 351 c 4
 638.243164062 262.135742188 694.813476562 175.504882812 735.37890625 85.5 c 4
 751.37890625 50 736.611328125 18.6640625 693.87890625 18 c 4
 597.37890625 16.5 522.405273438 17.2890625 430.37890625 18.5 c 4
 354.37890625 19.5 303.87890625 16.5 234.37890625 -8.5 c 4
 180.06640625 -28.037109375 140.6171875 -43.8173828125 93.87890625 -57 c 4
 54.87890625 -68 41.37890625 -48 55.37890625 -24 c 4
 84.55078125 26.0078125 118.608398438 70.7294921875 156.37890625 108.5 c 4
 180.37890625 132.5 199.91015625 140.645507812 256.87890625 138.5 c 4
 376.37890625 134 449.50390625 92.0849609375 566.87890625 78 c 4
 591.87890625 75 600.424804688 94.0888671875 593.87890625 120 c 4
 581.87890625 167.5 570.735351562 202.754882812 543.87890625 248.5 c 4
 523.633789062 282.984375 504.48828125 301.833984375 470.87890625 323.5 c 4
 408.866210938 363.474609375 375.440429688 366.147460938 309.545898438 399.333984375 c 4
 267.788085938 420.364257812 229.545898438 440.998046875 193.545898438 465.998046875 c 4
 150.952148438 495.577148438 136.879882812 524.999023438 150.212890625 585.665039062 c 4
 165.326171875 654.4296875 190.212890625 714.665039062 220.212890625 772.665039062 c 4
EndSplineSet
EndChar

StartChar: NameMe.42
Encoding: 43 -1 42
Width: 801
Flags: HW
LayerCount: 2
Fore
SplineSet
602.860351562 824 m 0
 644.360351562 796 686.360351562 752 723.860351562 702 c 0
 750.712890625 666.196289062 754.966796875 628.264648438 748.360351562 584 c 0
 733.360351562 483.5 692.166992188 356.098632812 616.860351562 216.5 c 0
 559.319335938 109.834960938 478.360351562 28 409.360351562 -32.5 c 0
 366.791015625 -69.8251953125 335.462890625 -75.6591796875 277.860351562 -58.5 c 0
 198.459960938 -34.84765625 145.479492188 -1.5419921875 88.8603515625 48 c 0
 68.8603515625 65.5 69.3603515625 78.5 98.8603515625 74 c 0
 150.665039062 66.09765625 179.690429688 66.65234375 232.360351562 68.5 c 0
 269.016601562 69.7861328125 294.099609375 72.794921875 328.860351562 84.5 c 0
 409.521484375 111.661132812 456.15234375 128.634765625 525.860351562 170 c 0
 571.360351562 197 584.360351562 223 592.360351562 273.5 c 0
 609.787109375 383.51171875 617.360351562 444 630.360351562 548 c 0
 636.626953125 598.135742188 629.672851562 629.41015625 611.360351562 676.5 c 0
 593.860351562 721.5 580.315429688 755.461914062 575.860351562 801.5 c 0
 572.860351562 832.5 580.892578125 838.821289062 602.860351562 824 c 0
201.860351562 806 m 0
 227.860351562 827 240.360351562 821 230.860351562 792 c 0
 215.294921875 744.484375 211.03125 706.095703125 218.860351562 653 c 0
 234.302734375 548.259765625 245.040039062 442.745117188 281.360351562 326.5 c 0
 299.134765625 269.610351562 326.958007812 210.91015625 356.860351562 147 c 0
 377.643554688 102.578125 352.85546875 104.551757812 331.860351562 132 c 0
 222.860351562 274.5 155.860351562 365.5 75.8603515625 527 c 0
 45.46484375 588.360351562 41.08984375 616.267578125 66.8603515625 657.5 c 0
 99.3603515625 709.5 146.716796875 761.4609375 201.860351562 806 c 0
EndSplineSet
EndChar

StartChar: four
Encoding: 2 52 43
Width: 890
Flags: HW
LayerCount: 2
Fore
SplineSet
554 804 m 0
 612 862 639.017945989 823.497827622 612 773 c 0
 528 616 469 505 399 351 c 0
 386.040026528 322.488058361 377.764798012 284.552896954 406 271 c 0
 456 247 517 225 568 210 c 0
 598.130264194 201.13815759 637.874970551 212.749705507 641 244 c 0
 655 384 662 505 676 621 c 0
 679.577210731 650.639746053 684.034515852 694.497123679 702 693 c 0
 726 691 724.172878584 645.522761203 726 613 c 0
 736 435 740 298 750 105 c 0
 752.335670662 59.9215562208 757 27 770 -9 c 0
 785.036701403 -50.6400961925 798.246371819 -89.1628080901 770 -124 c 0
 740 -161 710 -185 676 -203 c 0
 652.904512271 -215.227022915 621.826667947 -188.10663819 623 -162 c 0
 627 -73 634 15 640 112 c 0
 641.733770062 140.029282669 611.037061892 157.608683879 583 156 c 0
 461 149 340.985730199 147.624643255 196 144 c 0
 76 141 78.443359375 243.8046875 117 292 c 0
 269 482 365.933522392 615.933522392 554 804 c 0
EndSplineSet
EndChar

StartChar: NameMe.44
Encoding: 44 -1 44
Width: 818
Flags: HW
LayerCount: 2
Fore
SplineSet
55.9267578125 812 m 0
 65.9267578125 820 81.8212890625 803.725585938 95.9267578125 793 c 0
 191.926757812 720 216.536132812 706.857421875 311.926757812 723 c 0
 441.926757812 745 534.926757812 764 663.926757812 800 c 0
 710.240234375 812.924804688 729.459960938 788.389648438 725.926757812 758 c 0
 715.926757812 672 712.228515625 586.125976562 716.926757812 479 c 0
 721.926757812 365 752.926757812 276 766.926757812 150 c 0
 770.13671875 121.109375 770.46875 96.900390625 749.926757812 77 c 0
 717.926757812 46 685.926757812 18 642.926757812 -13 c 0
 615.239257812 -32.9609375 597.926757812 -27 602.926757812 7 c 0
 623.40234375 146.232421875 631.926757812 277 661.926757812 467 c 0
 672.27734375 532.557617188 678.130859375 576.694335938 667.926757812 642 c 0
 657.926757812 706 632.926757812 719 568.926757812 706 c 0
 452.935546875 682.439453125 354.926757812 632 264.926757812 584 c 0
 232.53125 566.72265625 214.291992188 544.795898438 209.926757812 508 c 0
 195.926757812 390 207.926757812 312 257.926757812 155 c 0
 272.897460938 107.991210938 265.926757812 81 233.926757812 58 c 0
 198.161132812 32.2939453125 168.124023438 12.798828125 123.926757812 -8 c 0
 89.9267578125 -24 71.9267578125 -21 82.9267578125 22 c 0
 114.381835938 144.961914062 133.926757812 256 155.926757812 396 c 0
 168.228515625 474.286132812 166.92578125 524 135.926757812 610 c 0
 112.372070312 675.346679688 85.9267578125 716 57.9267578125 769 c 0
 49.9443359375 784.109375 45.9267578125 804 55.9267578125 812 c 0
EndSplineSet
EndChar

StartChar: NameMe.45
Encoding: 45 -1 45
Width: 764
Flags: W
VStem: 115.718 42<544.787 672.169> 562.718 57<74.4631 516.484>
LayerCount: 2
Fore
SplineSet
52.7177734375 822 m 0
 60.2646484375 827.66015625 76.0439453125 818.44921875 88.7177734375 810 c 0
 151.717773438 768 215.913085938 739.102539062 297.717773438 724 c 0
 362.717773438 712 431.717773438 709 504.717773438 719 c 0
 560.419921875 726.630859375 603.717773438 733 671.717773438 730 c 0
 710.692382812 728.280273438 723.268554688 710.899414062 709.717773438 683 c 0
 692.717773438 648 673.32421875 608.194335938 653.717773438 568 c 0
 633.717773438 527 623.717773438 486 621.717773438 425 c 0
 619.947265625 370.9921875 618.717773438 325 619.717773438 261 c 24
 620.717773438 206 621.717773438 175 627.717773438 120 c 24
 640.717773438 6 646.717773438 -57 667.717773438 -172 c 0
 677.143554688 -223.615234375 667.717773438 -254 623.717773438 -283 c 0
 591.293945312 -304.370117188 552.853515625 -326.125 508.717773438 -354 c 0
 489.717773438 -366 473.717773438 -360 479.717773438 -336 c 0
 493.778320312 -279.756835938 507.404296875 -226.7421875 526.717773438 -157 c 0
 544.717773438 -92 545.717773438 -50 550.717773438 18 c 24
 559.717773438 125 557.717773438 192 562.717773438 294 c 0
 566.150390625 364.030273438 573.21484375 422.163085938 579.717773438 475 c 0
 587.717773438 540 573.717773438 563 513.717773438 583 c 0
 411.4140625 617.1015625 309.717773438 646 200.717773438 671 c 0
 170.455078125 677.94140625 158.717773438 674 157.717773438 642 c 0
 154.311523438 533.01171875 199.717773438 474 289.717773438 377 c 0
 316.208984375 348.448242188 312.80078125 319.729492188 261.717773438 319 c 0
 191.717773438 318 139.717773438 338 85.7177734375 376 c 0
 58.044921875 395.473632812 56.0693359375 425.2421875 61.7177734375 458 c 0
 71.7177734375 516 114.717773438 551 115.717773438 638 c 0
 116.544921875 710.001953125 97.7177734375 746 63.7177734375 792 c 0
 56.19921875 802.171875 44.7177734375 816 52.7177734375 822 c 0
EndSplineSet
EndChar

StartChar: NameMe.46
Encoding: 46 -1 46
Width: 954
Flags: W
VStem: 703.949 49<324.214 389.935>
LayerCount: 2
Fore
SplineSet
594.948242188 780 m 4
 575.948242188 806 589.448242188 821 619.948242188 817 c 4
 700.744140625 806.404296875 761.948242188 790.5 840.948242188 768 c 4
 871.890625 759.1875 890.907226562 735.517578125 884.448242188 704 c 4
 859.448242188 582 804.448242188 442 752.948242188 350 c 4
 743.173828125 332.538085938 727.948242188 314.5 709.948242188 322 c 4
 690.388671875 330.149414062 698.71484375 355.467773438 703.948242188 376 c 4
 716.948242188 427 722.948242188 461.5 730.448242188 511.5 c 4
 738.124023438 562.669921875 724.448242188 599.5 705.948242188 634 c 4
 673.732421875 694.078125 635.129882812 725.014648438 594.948242188 780 c 4
67.9482421875 822 m 0
 115.689453125 814.979492188 158.448242188 812 203.948242188 810 c 0
 223.359375 809.146484375 236.107421875 797.185546875 242.948242188 779 c 0
 282.448242188 674 354.78125 589.649414062 462.948242188 506 c 0
 650.448242188 361 762.448242188 242 889.948242188 47 c 0
 917.811523438 4.38671875 905.448242188 -20 864.948242188 -13 c 0
 828.127929688 -6.6357421875 800.60546875 -0.865234375 758.948242188 1 c 0
 725.448242188 2.5 702.448242188 12.5 683.948242188 49 c 0
 652.104492188 111.827148438 630.448242188 168 593.948242188 222 c 0
 544.788085938 294.73046875 509.948242188 352.5 437.448242188 386 c 0
 410.993164062 398.223632812 389.575195312 388.208007812 371.948242188 365 c 0
 281.948242188 246.5 212.448242188 125.5 117.448242188 7 c 0
 106.395507812 -6.787109375 87.009765625 -22.2421875 71.9482421875 -13 c 0
 57.3076171875 -4.015625 61.9267578125 18.322265625 68.9482421875 34 c 0
 148.448242188 211.5 198.448242188 363.5 220.448242188 524 c 0
 230.455078125 596.999023438 211.346679688 627.946289062 160.948242188 671.5 c 0
 120.448242188 706.5 83.9482421875 748.5 53.9482421875 795 c 0
 45.4375 808.193359375 50.9482421875 824.5 67.9482421875 822 c 0
EndSplineSet
EndChar

StartChar: NameMe.47
Encoding: 47 -1 47
Width: 853
Flags: HW
LayerCount: 2
Fore
SplineSet
95.9775390625 1018 m 0
 121.977539062 980 138.875 951.458007812 170.977539062 909 c 0
 201.977539062 868 241.856445312 840.782226562 298.477539062 826 c 0
 399.977539062 799.5 484.977539062 782.5 572.477539062 766 c 0
 643.38671875 752.62890625 709.782226562 758.826171875 761.977539062 763.5 c 0
 795.477539062 766.5 805.627929688 744.685546875 802.477539062 722 c 0
 797.477539062 686 786.966796875 647.538085938 775.477539062 616 c 0
 726.477539062 481.5 680.961914062 361.24609375 611.477539062 229 c 0
 580.477539062 170 502.977539062 81 432.477539062 48 c 0
 388.411132812 27.373046875 332.509765625 5.4150390625 262.977539062 4.5 c 0
 224.977539062 4 209.977539062 23 232.477539062 53 c 0
 261.946289062 92.2919921875 289.477539062 116.5 318.477539062 145 c 0
 338.78515625 164.958007812 357.477539062 170 389.477539062 162 c 0
 408.865234375 157.153320312 418.776367188 150.36328125 438.477539062 147 c 0
 479.477539062 140 503.44921875 149.258789062 524.477539062 191 c 0
 557.977539062 257.5 580.477539062 336.5 597.477539062 415 c 0
 617.240234375 506.260742188 624.977539062 563.5 631.477539062 652 c 0
 633.271484375 676.426757812 620.477539062 692.5 581.477539062 690 c 0
 442.431640625 681.086914062 345.993164062 666.977539062 228.477539062 635 c 0
 154.977539062 615 134.977539062 636.5 131.477539062 702 c 0
 126.109375 802.45703125 99.4775390625 907.5 60.9775390625 997 c 0
 54.0146484375 1013.18554688 42.4580078125 1031.51855469 56.9775390625 1041.5 c 0
 70.70703125 1050.93847656 86.5693359375 1031.75 95.9775390625 1018 c 0
EndSplineSet
EndChar
